<?xml version="1.0" encoding="UTF-8"?>
<svg id="Capa_2" data-name="Capa 2" xmlns="http://www.w3.org/2000/svg" viewBox="0 0 112.82 57.37">
  <defs>
    <style>
      .cls-1 {
        fill: #1d1d1b;
      }
    </style>
  </defs>
  <g id="Capa_2-2" data-name="Capa 2">
    <g>
      <polygon class="cls-1" points="23.85 5.77 23.85 6.66 22.84 6.66 22.84 7.22 23.85 7.22 23.85 9.01 24.4 9.01 24.4 7.22 25.41 7.22 25.41 6.66 24.4 6.66 24.4 5.77 23.85 5.77"/>
      <path class="cls-1" d="M6.77,33.11c0,9.64,7.77,17.45,17.38,17.45,9.6,0,17.38-7.81,17.38-17.45,0-9.58-7.83-17.45-17.38-17.45-9.6,0-17.38,7.81-17.38,17.45M7.24,33.38h11.36c.08,4.47,2.33,7.45,5.24,8.19v8.51c-9.17-.12-16.48-7.54-16.6-16.71M24.13,27.85c1.06.35,2.4.59,5.09.41v4.85c0,4.32-2.14,7.39-5.09,8.04-2.94-.65-5.09-3.73-5.09-8.04v-4.85c2.68.18,4.03-.06,5.09-.41M24.4,50.09v-8.51c2.91-.75,5.14-3.72,5.22-8.19h11.43c-.12,9.17-7.59,16.59-16.65,16.71M41.05,32.82h-11.39s0-4.97,0-4.97c-2.46.22-4.14-.02-5.25-.39v-11.32c9.06.12,16.53,7.63,16.65,16.68M23.85,16.14v11.32c-1.12.37-2.8.61-5.25.39v4.97s-11.35,0-11.35,0c.12-9.17,7.43-16.57,16.6-16.68"/>
      <path class="cls-1" d="M27.33,9.16l-.12.47c11.6,1.54,20.56,11.59,20.56,23.48,0,13.01-10.6,23.66-23.62,23.66-13.02,0-23.62-10.65-23.62-23.66,0-11.95,8.95-21.94,20.55-23.48l-.12-.47C9.18,10.64,0,20.93,0,33.11c0,13.37,10.84,24.25,24.15,24.25,13.31,0,24.15-10.88,24.15-24.25,0-12.18-9.19-22.48-20.97-23.96"/>
      <path class="cls-1" d="M32.13,8.93l-4.54-.5-.06.37,4.12.62c.12-.12.36-.37.48-.5M27.58,8l4.84.37c.12-.19.42-.5.42-.5l-.42-.31-4.84.06v.37ZM27.52,7l.06.31,4.36-.43s-.36-.5-.48-.62l-3.94.74ZM27.35,6.32l.12.37,3.59-1.05-.3-.62-3.41,1.3ZM26.99,5.7l.18.31,3.29-1.8c-.06-.12-.12-.74-.12-.74l-3.35,2.23ZM26.51,5.14l.3.31,3.35-2.79v-.74s-.66,0-.66,0l-2.99,3.22ZM25.91,4.71l.3.19,2.27-3.1-.84-.06-1.73,2.98ZM25.37,4.34l.3.19,1.25-2.91-.66-.25-.9,2.98ZM24.66,4.21l.36.06.72-3.22-.42-.31-.66,3.47ZM16.23,8.93c.12.12.36.37.48.5l4.12-.62-.06-.37-4.54.5ZM20.77,8v-.37s-4.84-.06-4.84-.06l-.42.31s.3.31.42.5l4.84-.37ZM20.83,7l-3.94-.74c-.12.12-.48.62-.48.62l4.36.43.06-.31ZM21.01,6.32l-3.41-1.3-.3.62,3.59,1.05.12-.37ZM21.37,5.7l-3.35-2.23s-.06.62-.12.74l3.29,1.8.18-.31ZM21.85,5.14l-2.99-3.22h-.66s0,.74,0,.74l3.35,2.79.3-.31ZM22.45,4.71l-1.73-2.98-.84.06,2.27,3.1.3-.19ZM22.98,4.34l-.9-2.98-.66.25,1.25,2.91.3-.19ZM23.7,4.21l-.66-3.47s-.36.25-.42.31l.72,3.22.36-.06ZM24.36,4.15l.3-3.84c-.24-.06-.48-.31-.48-.31,0,0-.24.25-.48.31l.3,3.84h.36Z"/>
      <path class="cls-1" d="M54.85,19.34c-.32,0-.47-.06-.47-.06v-.14s.08,0,.15,0c.21,0,.37-.05.5-.15.23-.17.35-.5.35-.94,0-1.02-.59-1.05-.96-1.05-.12,0-.3.02-.3.02v3.12c0,.55,0,.77.1.91.1.13.25.2.55.21v.13c-.28-.01-.89-.03-1.14-.03s-.64,0-.95.03v-.13c.09,0,.24-.04.35-.16.12-.13.13-.33.13-.94v-2.44c0-.45-.02-.6-.09-.71-.06-.08-.17-.16-.36-.18v-.13c.28.01.6.02.85.02.4,0,.64-.01,1.07-.01.14,0,.52,0,.8.07.52.12.99.43.99,1.18,0,.94-.72,1.36-1.57,1.36"/>
      <path class="cls-1" d="M59.35,21.46c-1.47,0-2.33-.89-2.33-2.32,0-1.47.93-2.45,2.41-2.45s2.33.89,2.33,2.32-.93,2.45-2.41,2.45M59.4,17.01c-.96,0-1.31.92-1.31,2.05s.4,2.1,1.3,2.1c.96,0,1.31-.92,1.31-2.05s-.4-2.1-1.3-2.1"/>
      <path class="cls-1" d="M66.85,17.01c-.12.13-.13.33-.13.94v3.47h-.4s-2.7-3.58-2.7-3.58c-.12-.16-.17-.27-.17-.27v2.82c0,.45.02.6.09.71.06.08.17.16.36.18v.13c-.28-.01-.42-.03-.67-.03s-.4,0-.71.03v-.13c.09,0,.24-.04.35-.16.12-.13.13-.33.13-.94v-2.44c0-.45-.02-.6-.09-.71-.06-.08-.17-.16-.36-.18v-.13c.28.01.57.03.82.03.11,0,.42-.01.62-.03l2.05,2.73c.18.24.23.35.23.35v-2.07c0-.45-.02-.6-.09-.71-.06-.08-.17-.16-.36-.18v-.13c.28.01.45.03.69.03s.38,0,.68-.03v.13c-.09,0-.24.04-.35.16"/>
      <path class="cls-1" d="M71.16,17.66c0-.24-.11-.4-.24-.48-.16-.09-.3-.11-.74-.11h-.26s0,3.31,0,3.31c0,.45.02.6.09.7.11.17.43.18.5.18v.13c-.28-.01-.84-.03-1.09-.03s-.82.01-1.1.03v-.13c.06,0,.35-.02.49-.17.12-.13.13-.32.13-.93v-3.1s-.26,0-.26,0c-.44,0-.58.01-.74.11-.13.08-.23.24-.24.48h-.15c.03-.33.02-.91.02-.91h3.71s0,.59.02.91h-.15Z"/>
      <path class="cls-1" d="M73.31,17.01c-.12.13-.13.33-.13.94v2.44c0,.45.02.6.09.71.06.08.17.16.36.18v.13c-.28-.01-.71-.03-.96-.03s-.67.01-.95.03v-.13c.09,0,.24-.04.35-.16.12-.13.13-.33.13-.94v-2.44c0-.45-.02-.6-.09-.71-.06-.08-.17-.16-.36-.18v-.13c.28.01.71.03.96.03s.67-.01.95-.03v.13c-.09,0-.24.04-.35.16"/>
      <path class="cls-1" d="M77.45,17.66c0-.24-.11-.4-.24-.48-.16-.09-.3-.11-.74-.11h-.58s0,1.74,0,1.74h.59c.26,0,.45-.01.57-.12.1-.08.17-.21.18-.42h.15c0,.16-.01.25-.01.7s0,.52.01.69h-.15c-.01-.18-.07-.3-.16-.38-.15-.13-.37-.14-.62-.14h-.58s0,1.26,0,1.26c0,.45.02.59.09.69.11.17.43.18.5.18v.13c-.28-.01-.84-.04-1.08-.04-.4,0-.57.01-.96.04v-.13c.09,0,.24-.04.35-.16.12-.13.13-.33.13-.94v-2.44c0-.45-.02-.6-.09-.71-.06-.08-.17-.16-.36-.18v-.13c.39.02.69.02,1.09.02h2.03s0,.59.02.91h-.15Z"/>
      <path class="cls-1" d="M79.81,17.01c-.12.13-.13.33-.13.94v2.44c0,.45.02.6.09.71.06.08.17.16.36.18v.13c-.28-.01-.71-.03-.96-.03s-.67.01-.95.03v-.13c.09,0,.24-.04.35-.16.12-.13.13-.33.13-.94v-2.44c0-.45-.02-.6-.09-.71-.06-.08-.17-.16-.36-.18v-.13c.28.01.71.03.96.03s.67-.01.95-.03v.13c-.09,0-.24.04-.35.16"/>
      <path class="cls-1" d="M84.58,17.66c0-.18-.08-.32-.19-.41-.22-.19-.59-.23-.81-.23-.62,0-1.58.13-1.58,2.06,0,1.18.4,2,1.6,2,.25,0,.59-.04.79-.26.09-.1.15-.24.15-.43h.15c-.01.21-.03.42-.03.76v.12c-.32.11-.83.16-1.2.16-.89,0-1.64-.25-2.08-.8-.28-.35-.45-.84-.45-1.46,0-1.23.69-2,1.6-2.32.36-.13.81-.16,1.08-.16.55,0,1.05.08,1.11.08-.01.13-.01.3-.01.44,0,.18,0,.36.01.45h-.15Z"/>
      <path class="cls-1" d="M87.09,17.01c-.12.13-.13.33-.13.94v2.44c0,.45.02.6.09.71.06.08.17.16.36.18v.13c-.28-.01-.71-.03-.96-.03s-.67.01-.95.03v-.13c.09,0,.24-.04.35-.16.12-.13.13-.33.13-.94v-2.44c0-.45-.02-.6-.09-.71-.06-.08-.17-.16-.36-.18v-.13c.28.01.71.03.96.03s.67-.01.95-.03v.13c-.09,0-.24.04-.35.16"/>
      <path class="cls-1" d="M91.46,21.38c-.21,0-.74.01-.94.03v-.13c.17,0,.28-.04.33-.08.04-.04.06-.09.06-.16,0-.08-.04-.21-.11-.4l-.34-.98h-1.32s-.36.98-.36.98c-.07.2-.11.31-.11.4,0,.06.01.11.06.15.08.08.23.08.33.08v.13c-.25-.01-.42-.03-.67-.03-.23,0-.43,0-.66.03v-.13c.2,0,.3-.14.35-.21.06-.08.16-.33.35-.77l1.47-3.57.52-.09,1.27,3.6c.18.49.3.79.33.84.04.06.13.21.33.2v.13c-.21-.01-.68-.03-.89-.03M90.03,18.39c-.16-.45-.19-.64-.19-.64l-.59,1.59h1.1s-.33-.95-.33-.95Z"/>
      <path class="cls-1" d="M56.97,25.21c-.12.13-.13.33-.13.94v1.44c0,.53-.01.87-.12,1.15-.32.84-1.24.91-1.81.91-1.2,0-1.6-.42-1.78-.89-.13-.35-.12-.82-.12-1.19v-1.63c0-.45-.02-.6-.09-.71-.06-.08-.17-.16-.36-.18v-.13c.28.01.71.03.96.03s.67-.01.95-.03v.13c-.09,0-.24.04-.35.16-.12.13-.13.33-.13.94v1.88c0,.64.05,1.3,1.08,1.3s1.09-.74,1.09-1.3v-2.09c0-.45-.02-.6-.09-.71-.06-.08-.17-.16-.36-.18v-.13c.28.01.52.03.76.03s.57-.01.85-.03v.13c-.09,0-.24.04-.35.16"/>
      <path class="cls-1" d="M62.27,25.21c-.12.13-.13.33-.13.94v3.47h-.4s-2.7-3.58-2.7-3.58c-.12-.16-.17-.27-.17-.27v2.82c0,.45.02.6.09.71.06.08.17.16.36.18v.13c-.28-.01-.42-.03-.67-.03s-.4,0-.71.03v-.13c.09,0,.24-.04.35-.16.12-.13.13-.33.13-.94v-2.44c0-.45-.02-.6-.09-.71-.06-.08-.17-.16-.36-.18v-.13c.28.01.57.03.82.03.11,0,.42-.01.62-.03l2.05,2.73c.18.24.23.35.23.35v-2.07c0-.45-.02-.6-.09-.71-.06-.08-.17-.16-.36-.18v-.13c.28.01.45.03.69.03s.38,0,.68-.03v.13c-.09,0-.24.04-.35.16"/>
      <path class="cls-1" d="M64.87,25.21c-.12.13-.13.33-.13.94v2.44c0,.45.02.6.09.71.06.08.17.16.36.18v.13c-.28-.01-.71-.03-.96-.03s-.67.01-.95.03v-.13c.09,0,.24-.04.35-.16.12-.13.13-.33.13-.94v-2.44c0-.45-.02-.6-.09-.71-.06-.08-.17-.16-.36-.18v-.13c.28.01.71.03.96.03s.67-.01.95-.03v.13c-.09,0-.24.04-.35.16"/>
      <path class="cls-1" d="M69.93,25.26c-.06.08-.16.33-.35.77l-1.47,3.57-.54.09-1.27-3.6c-.18-.49-.3-.79-.33-.84-.04-.06-.13-.21-.33-.2v-.13c.21.01.68.03.89.03s.74-.01.95-.03v.13c-.17,0-.28.04-.33.09-.04.04-.06.09-.06.16,0,.09.04.21.11.4l.77,2.22c.15.43.2.64.2.64,0,0,.08-.23.23-.65l.82-2.22c.07-.2.11-.31.11-.4,0-.06-.01-.11-.06-.15-.08-.08-.23-.08-.33-.09v-.13c.25.01.42.03.68.03.23,0,.43,0,.66-.03v.13c-.2,0-.3.14-.35.21"/>
      <path class="cls-1" d="M73.69,29.59h-1.98c-.4,0-.78,0-1.18.01v-.13c.09,0,.24-.04.35-.16.12-.13.13-.33.13-.94v-2.44c0-.45-.02-.6-.09-.71-.06-.08-.17-.16-.36-.18v-.13c.39.02.69.02,1.09.02h2.03s0,.59.02.91h-.15c0-.24-.11-.4-.24-.48-.16-.09-.3-.11-.74-.11h-.58s0,1.74,0,1.74h.59c.26,0,.45-.01.57-.12.1-.08.17-.21.18-.42h.15c0,.16-.01.26-.01.7s0,.52.01.69h-.15c-.01-.18-.07-.3-.16-.38-.15-.13-.37-.14-.62-.14h-.58s0,1.57,0,1.57c0,.32.06.36.44.36h.12c.39,0,.67-.01.85-.19.09-.09.16-.26.17-.47h.15c-.03.33-.02.99-.02.99"/>
      <path class="cls-1" d="M78.5,29.62c-.74,0-.91-.3-1.16-.6-.16-.2-.69-.89-1.03-1.4h-.3s0,.96,0,.96c0,.45.02.6.09.71.06.08.17.16.36.18v.13c-.28-.01-.68-.03-.93-.03s-.67.01-.94.03v-.13c.09,0,.24-.04.35-.16.12-.13.13-.33.13-.94v-2.44c0-.45-.02-.6-.09-.71-.06-.08-.17-.16-.36-.18v-.13c.28.01.52.02.76.02.51,0,.63-.02,1.08-.02.16,0,.52,0,.81.07.84.21.94.84.94,1.13,0,.37-.13,1.03-1.03,1.29,0,0,.79.91,1.2,1.39.35.39.59.66.89.67v.12s-.16.03-.76.03M76.32,25.21c-.15,0-.3.02-.3.02v2.1s.16.01.33.01c.1,0,.2,0,.28-.03.1-.03.57-.11.57-1.08s-.59-1.03-.87-1.03"/>
      <path class="cls-1" d="M80.77,29.63c-.33,0-.79-.04-1.12-.15v-.11c0-.33-.01-.57-.03-.77h.15c.03.21.1.4.25.51.19.16.47.19.72.19.91,0,.93-.6.93-.74,0-.46-.3-.63-.69-.87l-.4-.25c-.51-.32-.84-.63-.84-1.3,0-.35.17-1.24,1.64-1.24.64,0,1.09.08,1.09.08,0,0-.02.16-.02.38,0,.4.01.51.01.51h-.15c-.01-.18-.08-.31-.19-.42-.18-.18-.5-.23-.72-.23-.73,0-.81.42-.81.66,0,.37.21.55.59.77l.45.27c.57.34.92.64.92,1.36,0,.95-.75,1.35-1.78,1.35"/>
      <path class="cls-1" d="M84.98,25.21c-.12.13-.13.33-.13.94v2.44c0,.45.02.6.09.71.06.08.17.16.36.18v.13c-.28-.01-.71-.03-.96-.03s-.67.01-.95.03v-.13c.09,0,.24-.04.35-.16.12-.13.13-.33.13-.94v-2.44c0-.45-.02-.6-.09-.71-.06-.08-.17-.16-.36-.18v-.13c.28.01.71.03.96.03s.67-.01.95-.03v.13c-.09,0-.24.04-.35.16"/>
      <path class="cls-1" d="M89.03,29.49c-.22.06-.61.11-1.15.11-.36,0-.62-.02-.94-.02-.25,0-.55,0-.82.02v-.13c.09,0,.24-.04.35-.16.12-.13.13-.33.13-.94v-2.44c0-.45-.02-.6-.09-.71-.06-.08-.17-.16-.36-.18v-.13s.27.02.79.02c.23,0,.65-.01,1.16-.01.64,0,2.59.06,2.59,2.2,0,1.66-.98,2.17-1.64,2.35M88.06,25.26c-.38,0-.5.02-.5.02v3.62c0,.21.02.31.17.35.07.02.18.02.34.02,1.08,0,1.54-.57,1.54-2.04,0-1.8-.93-1.98-1.54-1.98"/>
      <path class="cls-1" d="M94.62,29.58c-.21,0-.74.01-.94.03v-.13c.17,0,.28-.04.33-.08.04-.04.06-.09.06-.16,0-.08-.04-.21-.11-.4l-.34-.98h-1.32s-.36.98-.36.98c-.07.2-.11.31-.11.4,0,.06.01.11.06.15.08.08.23.08.33.08v.13c-.25-.01-.42-.03-.67-.03-.23,0-.43,0-.66.03v-.13c.2,0,.3-.14.35-.21.06-.08.16-.33.35-.77l1.47-3.57.52-.09,1.27,3.6c.18.49.3.79.33.84.04.06.13.21.33.2v.13c-.21-.01-.68-.03-.89-.03M93.2,26.59c-.16-.45-.19-.64-.19-.64l-.59,1.59h1.1s-.33-.95-.33-.95Z"/>
      <path class="cls-1" d="M98.88,29.49c-.22.06-.61.11-1.15.11-.36,0-.62-.02-.94-.02-.25,0-.55,0-.82.02v-.13c.09,0,.24-.04.35-.16.12-.13.13-.33.13-.94v-2.44c0-.45-.02-.6-.09-.71-.06-.08-.17-.16-.36-.18v-.13s.27.02.79.02c.23,0,.65-.01,1.16-.01.64,0,2.59.06,2.59,2.2,0,1.66-.98,2.17-1.64,2.35M97.92,25.26c-.38,0-.5.02-.5.02v3.62c0,.21.02.31.17.35.07.02.18.02.34.02,1.08,0,1.54-.57,1.54-2.04,0-1.8-.93-1.98-1.54-1.98"/>
      <path class="cls-1" d="M57.95,34.36c0-.26-.11-.45-.27-.58-.31-.27-.84-.32-1.15-.32-.89,0-2.24.19-2.24,2.93,0,1.68.57,2.85,2.27,2.85.36,0,.85-.05,1.12-.37.13-.14.21-.34.21-.61h.21c-.02.29-.04.6-.04,1.08v.17c-.45.15-1.18.22-1.7.22-1.27,0-2.32-.36-2.95-1.14-.4-.5-.63-1.2-.63-2.07,0-1.74.99-2.84,2.27-3.3.51-.18,1.15-.22,1.53-.22.77,0,1.49.11,1.58.11-.02.19-.02.42-.02.62,0,.26.01.51.02.64h-.21Z"/>
      <path class="cls-1" d="M63.88,39.63c-.3,0-1.05.02-1.34.04v-.18c.24,0,.39-.05.47-.12.06-.05.09-.13.09-.22,0-.12-.05-.29-.15-.57l-.48-1.39h-1.88s-.51,1.4-.51,1.4c-.1.28-.16.44-.16.57,0,.09.02.16.08.21.11.11.32.11.46.12v.18c-.35-.02-.59-.04-.96-.04-.32,0-.61.01-.94.04v-.18c.28,0,.43-.2.49-.29.08-.12.23-.47.49-1.1l2.09-5.07.73-.13,1.81,5.11c.25.69.43,1.13.47,1.2.06.09.19.29.47.28v.18c-.29-.02-.97-.04-1.26-.04M61.86,35.4c-.22-.63-.27-.91-.27-.91l-.84,2.25h1.57s-.46-1.35-.46-1.35Z"/>
      <path class="cls-1" d="M70.26,34.36c-.01-.34-.15-.57-.34-.68-.22-.13-.42-.15-1.05-.15h-.37s0,4.7,0,4.7c0,.63.03.86.13,1,.16.24.61.26.71.26v.19c-.39-.02-1.2-.04-1.55-.04s-1.17.02-1.56.04v-.18c.08,0,.5-.03.69-.24.17-.19.18-.45.18-1.32v-4.41s-.37,0-.37,0c-.62,0-.83.02-1.05.15-.19.11-.33.34-.34.68h-.21c.04-.46.03-1.3.03-1.3h5.27s-.01.84.03,1.3h-.21Z"/>
      <path class="cls-1" d="M74.39,39.75c-2.08,0-3.31-1.27-3.31-3.29,0-2.09,1.33-3.48,3.42-3.48s3.31,1.27,3.31,3.29c0,2.09-1.33,3.48-3.42,3.48M74.45,33.42c-1.37,0-1.86,1.31-1.86,2.91,0,1.67.57,2.98,1.85,2.98,1.37,0,1.86-1.31,1.86-2.91s-.57-2.98-1.85-2.98M75.82,31.78l-2.17.76-.12-.18,1.41-1.38.07-.02.87.66-.05.15Z"/>
      <path class="cls-1" d="M83.34,39.65h-2.76c-.56,0-1.11-.01-1.67.02v-.18c.13,0,.34-.05.49-.22.17-.19.18-.47.18-1.34v-3.46c0-.63-.03-.86-.13-1.01-.08-.11-.24-.23-.51-.25v-.18c.39.02,1.12.04,1.47.04s1.1-.02,1.49-.04v.19c-.42.02-.64.11-.78.3-.15.2-.14.51-.14,1.3v3.85c0,.45.08.51.62.51h.17c.55,0,.9-.02,1.15-.27.13-.13.23-.37.24-.67h.21c-.04.46-.03,1.41-.03,1.41"/>
      <path class="cls-1" d="M86.62,33.43c-.17.19-.18.47-.18,1.34v3.46c0,.63.03.86.13,1.01.08.11.24.23.51.25v.18c-.39-.02-1.01-.04-1.36-.04s-.96.02-1.35.04v-.18c.13,0,.34-.05.49-.22.17-.19.18-.47.18-1.34v-3.46c0-.63-.03-.86-.13-1.01-.08-.11-.24-.23-.51-.25v-.18c.39.02,1.01.04,1.36.04s.96-.02,1.35-.04v.18c-.13,0-.34.05-.49.22"/>
      <path class="cls-1" d="M93.4,34.36c0-.26-.11-.45-.27-.58-.31-.27-.84-.32-1.15-.32-.89,0-2.24.19-2.24,2.93,0,1.68.57,2.85,2.27,2.85.36,0,.85-.05,1.12-.37.13-.14.21-.34.21-.61h.21c-.02.29-.04.6-.04,1.08v.17c-.45.15-1.18.22-1.7.22-1.27,0-2.32-.36-2.95-1.14-.4-.5-.63-1.2-.63-2.07,0-1.74.99-2.84,2.27-3.3.51-.18,1.15-.22,1.53-.22.77,0,1.49.11,1.58.11-.02.19-.02.42-.02.62,0,.26.01.51.02.64h-.21Z"/>
      <path class="cls-1" d="M99.32,39.63c-.3,0-1.05.02-1.34.04v-.18c.24,0,.39-.05.47-.12.06-.05.09-.13.09-.22,0-.12-.05-.29-.15-.57l-.48-1.39h-1.88s-.51,1.4-.51,1.4c-.1.28-.16.44-.16.57,0,.09.02.16.08.21.11.11.32.11.46.12v.18c-.35-.02-.59-.04-.96-.04-.32,0-.61.01-.94.04v-.18c.28,0,.43-.2.49-.29.08-.12.23-.47.49-1.1l2.09-5.07.73-.13,1.81,5.11c.25.69.43,1.13.47,1.2.06.09.19.29.47.28v.18c-.29-.02-.97-.04-1.26-.04M97.3,35.4c-.22-.63-.27-.91-.27-.91l-.84,2.25h1.57s-.46-1.35-.46-1.35Z"/>
      <path class="cls-1" d="M105.85,39.55c-.22.06-.61.11-1.15.11-.36,0-.62-.02-.94-.02-.25,0-.55,0-.82.02v-.13c.09,0,.24-.04.35-.16.12-.13.13-.33.13-.94v-2.44c0-.45-.02-.6-.09-.71-.06-.08-.17-.16-.36-.18v-.13s.27.02.79.02c.23,0,.65-.01,1.16-.01.64,0,2.59.06,2.59,2.2,0,1.66-.98,2.17-1.64,2.35M104.89,35.33c-.38,0-.5.02-.5.02v3.62c0,.21.02.31.17.35.07.02.18.02.34.02,1.08,0,1.54-.57,1.54-2.04,0-1.8-.93-1.98-1.54-1.98"/>
      <path class="cls-1" d="M111.43,39.65h-1.98c-.4,0-.78,0-1.18.01v-.13c.09,0,.24-.04.35-.16.12-.13.13-.33.13-.94v-2.44c0-.45-.02-.6-.09-.71-.06-.08-.17-.16-.36-.18v-.13c.39.02.69.02,1.09.02h2.03s0,.59.02.91h-.15c0-.24-.11-.4-.24-.48-.16-.09-.3-.11-.74-.11h-.58s0,1.74,0,1.74h.59c.26,0,.45-.01.57-.12.1-.08.17-.21.18-.42h.15c0,.16-.01.26-.01.7s0,.52.01.69h-.15c-.01-.18-.07-.3-.16-.38-.15-.13-.37-.14-.62-.14h-.58s0,1.57,0,1.57c0,.32.06.36.44.36h.12c.39,0,.67-.01.85-.19.09-.09.16-.26.17-.47h.15c-.03.33-.02.99-.02.99"/>
      <path class="cls-1" d="M58.33,43.61c-.08.12-.23.47-.49,1.09l-2.07,5.03-.76.13-1.8-5.07c-.25-.69-.43-1.12-.47-1.19-.06-.09-.19-.29-.47-.28v-.18c.29.02.96.04,1.25.04s1.05-.02,1.34-.04v.18c-.24,0-.39.05-.47.12-.06.05-.09.13-.09.22,0,.12.05.29.15.57l1.09,3.14c.21.61.28.9.28.9,0,0,.11-.33.33-.92l1.16-3.13c.1-.28.16-.44.16-.57,0-.09-.02-.16-.08-.21-.11-.11-.32-.11-.46-.12v-.18c.35.02.6.04.96.04.32,0,.61-.01.93-.04v.18c-.28,0-.43.2-.49.29"/>
      <path class="cls-1" d="M63.45,49.7c-.3,0-1.04.02-1.33.04v-.18c.24,0,.39-.05.47-.12.06-.05.09-.13.09-.22,0-.12-.05-.29-.15-.57l-.48-1.38h-1.87s-.51,1.39-.51,1.39c-.1.28-.16.44-.16.57,0,.09.02.16.08.21.11.11.32.11.46.12v.18c-.35-.02-.59-.04-.95-.04-.32,0-.61,0-.93.04v-.18c.28,0,.43-.2.49-.29.08-.12.23-.47.49-1.09l2.08-5.03.73-.13,1.8,5.07c.25.69.43,1.12.47,1.19.06.09.19.29.47.28v.18c-.29-.02-.96-.04-1.25-.04M61.44,45.49c-.22-.63-.27-.9-.27-.9l-.83,2.24h1.56s-.46-1.34-.46-1.34Z"/>
      <path class="cls-1" d="M69.74,49.72h-2.74c-.56,0-1.1,0-1.66.02v-.18c.13,0,.34-.05.49-.22.17-.19.18-.47.18-1.33v-3.44c0-.63-.03-.85-.13-1-.08-.11-.24-.23-.51-.25v-.18c.39.02,1.11.04,1.46.04s1.09-.02,1.48-.04v.19c-.42.02-.64.11-.78.3-.15.2-.14.51-.14,1.29v3.83c0,.45.08.51.62.51h.17c.55,0,.89-.02,1.14-.27.13-.13.23-.37.24-.67h.21c-.04.46-.03,1.4-.03,1.4"/>
      <path class="cls-1" d="M73.81,46.83c-.45,0-.66-.08-.66-.08v-.2s.11.01.21.01c.29,0,.52-.07.71-.21.32-.24.49-.7.49-1.33,0-1.44-.84-1.48-1.35-1.48-.17,0-.42.03-.42.03v4.4c0,.78,0,1.09.14,1.29.14.19.36.28.78.3v.18c-.39-.02-1.26-.04-1.61-.04s-.91,0-1.34.04v-.18c.13,0,.34-.05.49-.22.17-.19.18-.47.18-1.33v-3.44c0-.63-.03-.85-.13-1-.08-.11-.24-.23-.51-.25v-.18c.39.02.85.03,1.2.03.56,0,.9-.02,1.51-.02.2,0,.73,0,1.13.1.73.17,1.4.61,1.4,1.66,0,1.33-1.02,1.92-2.22,1.92"/>
      <path class="cls-1" d="M81.06,49.7c-.3,0-1.04.02-1.33.04v-.18c.24,0,.39-.05.47-.12.06-.05.09-.13.09-.22,0-.12-.05-.29-.15-.57l-.48-1.38h-1.87s-.51,1.39-.51,1.39c-.1.28-.16.44-.16.57,0,.09.02.16.08.21.11.11.32.11.46.12v.18c-.35-.02-.59-.04-.95-.04-.32,0-.61,0-.93.04v-.18c.28,0,.43-.2.49-.29.08-.12.23-.47.49-1.09l2.08-5.03.73-.13,1.8,5.07c.25.69.43,1.12.47,1.19.06.09.19.29.47.28v.18c-.29-.02-.96-.04-1.25-.04M79.05,45.49c-.22-.63-.27-.9-.27-.9l-.83,2.24h1.56s-.46-1.34-.46-1.34Z"/>
      <path class="cls-1" d="M88.47,49.77c-1.04,0-1.29-.42-1.64-.85-.22-.28-.97-1.25-1.46-1.97h-.42s0,1.36,0,1.36c0,.63.03.85.13,1,.08.11.24.23.51.25v.18c-.39-.02-.96-.04-1.31-.04s-.94.02-1.33.04v-.18c.13,0,.34-.05.49-.22.17-.19.18-.47.18-1.33v-3.44c0-.63-.03-.85-.13-1-.08-.11-.24-.23-.51-.25v-.18c.39.02.73.03,1.08.03.72,0,.89-.03,1.53-.03.23,0,.74,0,1.14.1,1.19.3,1.33,1.19,1.33,1.59,0,.52-.18,1.46-1.46,1.82,0,0,1.11,1.28,1.7,1.96.49.55.83.93,1.25.95v.17s-.23.04-1.08.04M85.38,43.53c-.21,0-.43.03-.43.03v2.96s.23.02.47.02c.14,0,.28,0,.39-.04.14-.04.8-.16.8-1.52s-.84-1.45-1.23-1.45"/>
      <path class="cls-1" d="M95.09,49.7c-.3,0-1.04.02-1.33.04v-.18c.24,0,.39-.05.47-.12.06-.05.09-.13.09-.22,0-.12-.05-.29-.15-.57l-.48-1.38h-1.87s-.51,1.39-.51,1.39c-.1.28-.16.44-.16.57,0,.09.02.16.08.21.11.11.32.11.46.12v.18c-.35-.02-.59-.04-.95-.04-.32,0-.61,0-.93.04v-.18c.28,0,.43-.2.49-.29.08-.12.23-.47.49-1.09l2.08-5.03.73-.13,1.8,5.07c.25.69.43,1.12.47,1.19.06.09.19.29.47.28v.18c-.29-.02-.96-.04-1.25-.04M93.08,45.49c-.22-.63-.27-.9-.27-.9l-.83,2.24h1.56s-.46-1.34-.46-1.34Z"/>
      <path class="cls-1" d="M99.22,43.54c-.17.19-.18.47-.18,1.33v3.44c0,.63.03.85.13,1,.08.11.24.23.51.25v.18c-.39-.02-1-.04-1.35-.04s-.95.02-1.34.04v-.18c.13,0,.34-.05.49-.22.17-.19.18-.47.18-1.33v-3.44c0-.63-.03-.85-.13-1-.08-.11-.24-.23-.51-.25v-.18c.39.02,1,.04,1.35.04s.95-.02,1.34-.04v.18c-.13,0-.34.05-.49.22M99.69,41.9l-2.16.76-.12-.18,1.4-1.37.07-.02.86.66-.05.15Z"/>
      <path class="cls-1" d="M102.42,49.78c-.46,0-1.12-.06-1.58-.21v-.16c0-.47-.02-.8-.04-1.09h.21c.04.3.14.56.35.72.27.22.66.27,1.01.27,1.29,0,1.31-.85,1.31-1.05,0-.65-.42-.89-.97-1.23l-.56-.35c-.72-.45-1.19-.89-1.19-1.84,0-.5.24-1.75,2.32-1.75.9,0,1.54.11,1.54.11,0,0-.03.22-.03.54,0,.56.02.72.02.72h-.21c-.02-.25-.12-.44-.27-.59-.26-.26-.7-.32-1.02-.32-1.03,0-1.15.59-1.15.93,0,.52.3.77.84,1.09l.64.38c.81.48,1.3.91,1.3,1.92,0,1.34-1.06,1.91-2.52,1.91"/>
      <path class="cls-1" d="M109.42,49.82c-2.07,0-3.29-1.26-3.29-3.27s1.32-3.46,3.4-3.46c2.07,0,3.29,1.26,3.29,3.27,0,2.08-1.32,3.46-3.4,3.46M109.48,43.53c-1.36,0-1.85,1.3-1.85,2.89s.57,2.96,1.84,2.96c1.36,0,1.85-1.3,1.85-2.89,0-1.66-.57-2.96-1.84-2.96"/>
      <path class="cls-1" d="M8.97,49.09c-.12-.07-.32-.21-.55-.45-.16-.16-.26-.28-.4-.42-.11-.11-.24-.23-.37-.35l.06-.06s.12.09.22.08c.11,0,.2-.09.46-.36l1.06-1.07c.19-.2.25-.27.27-.35,0-.06,0-.14-.08-.23l.06-.06s.11.13.33.35c.1.1.29.28.51.5.28.28,1.11,1.15.18,2.09-.72.73-1.37.52-1.74.32M10.38,46.82c-.16-.16-.23-.21-.23-.21l-1.57,1.58c-.09.09-.13.15-.08.23.02.04.07.09.14.16.47.47.92.42,1.56-.23.78-.79.45-1.27.18-1.53"/>
      <path class="cls-1" d="M11.91,51.55l-.98-.72c-.2-.14-.38-.29-.59-.42l.05-.06s.13.07.23.05c.11-.02.18-.12.41-.42l.89-1.21c.16-.22.21-.31.21-.39,0-.06-.03-.14-.12-.22l.05-.06c.19.15.34.26.53.41l1.01.74s-.22.29-.32.46l-.07-.05c.08-.12.09-.24.06-.33-.04-.1-.11-.16-.33-.32l-.29-.21-.63.86.3.22c.13.09.23.16.33.15.08,0,.16-.04.24-.14l.07.05c-.06.08-.1.12-.26.34-.16.22-.19.26-.24.35l-.07-.05c.06-.1.08-.18.06-.25-.03-.12-.13-.2-.25-.29l-.29-.21-.57.78c-.12.16-.1.2.09.34l.06.04c.19.14.34.24.49.21.08-.01.18-.07.26-.17l.07.05c-.13.15-.37.48-.37.48"/>
      <path class="cls-1" d="M17.13,51.31c-.05.03-.18.14-.39.34l-1.75,1.61-.32-.09.23-2.34c.03-.32.04-.52.03-.56,0-.05-.02-.15-.13-.2l.03-.07c.11.06.37.19.49.25.12.06.42.19.54.23l-.03.07c-.09-.04-.16-.05-.21-.04-.03,0-.06.03-.08.07-.02.05-.03.12-.05.25l-.15,1.44c-.03.28-.06.41-.06.41,0,0,.1-.11.3-.3l1.04-1.02c.09-.09.14-.14.17-.2.02-.04.02-.07,0-.1-.02-.06-.11-.1-.16-.13l.03-.07c.13.07.23.13.37.19.13.06.24.11.37.16l-.03.07c-.11-.06-.21,0-.25.02"/>
      <path class="cls-1" d="M18.5,54.52c-.13-.04-.44-.12-.56-.15l.02-.08c.1.03.17.03.21.01.03-.01.05-.04.07-.08.02-.05.02-.13.01-.26l-.02-.64-.78-.24-.39.51c-.08.1-.12.16-.14.22-.01.04-.01.07,0,.1.03.06.12.09.18.11l-.02.08c-.14-.05-.24-.09-.39-.14-.13-.04-.26-.07-.39-.1l.02-.08c.12.04.2-.03.24-.06.05-.04.16-.17.34-.39l1.51-1.83.32.04.1,2.35c.02.32.04.52.04.56.01.05.04.15.16.18l-.02.08c-.12-.05-.4-.14-.52-.18M18.2,52.51c-.01-.29,0-.41,0-.41l-.63.83.65.2-.02-.62Z"/>
      <path class="cls-1" d="M21.57,55.12l-1.18-.19c-.24-.04-.47-.08-.72-.11v-.08c.07,0,.16,0,.24-.06.09-.07.11-.19.17-.56l.24-1.48c.04-.27.05-.37.01-.44-.03-.05-.09-.12-.2-.14v-.08c.18.04.49.1.64.12.15.02.47.07.64.09v.08c-.2-.02-.3,0-.37.07-.08.08-.1.21-.15.55l-.27,1.65c-.03.19,0,.23.23.26h.07c.24.05.38.07.51-.02.07-.05.12-.14.15-.27h.09c-.05.21-.11.62-.11.62"/>
      <path class="cls-1" d="M23.75,53.99c-.2,0-.29-.04-.29-.04v-.09s.05,0,.09,0c.13,0,.23-.02.31-.08.14-.1.22-.3.23-.57.02-.63-.35-.66-.57-.66-.07,0-.18,0-.18,0l-.06,1.92c-.01.34-.02.48.04.56.06.08.15.13.34.14v.08c-.17-.01-.55-.03-.7-.04-.15,0-.4-.01-.58,0v-.08c.06,0,.15-.02.22-.09.08-.08.08-.2.1-.58l.05-1.5c0-.27,0-.37-.04-.44-.03-.05-.1-.1-.22-.12v-.08c.17.01.37.02.53.03.24,0,.39,0,.66.01.09,0,.32.01.49.06.32.08.6.28.59.74-.02.58-.47.82-.99.81"/>
      <path class="cls-1" d="M27.22,55.05c-.13.01-.45.05-.58.08v-.08c.1-.01.16-.04.19-.07.02-.02.03-.06.03-.1,0-.05-.03-.12-.09-.24l-.27-.58-.81.08-.16.63c-.03.13-.05.2-.04.25,0,.04.02.07.04.09.05.04.14.03.2.03v.08c-.14,0-.25,0-.41.02-.14.01-.26.03-.4.06v-.08c.11,0,.17-.11.19-.15.03-.06.08-.21.17-.49l.68-2.28.31-.09,1,2.13c.14.29.24.47.26.5.03.04.09.12.22.1v.08c-.12,0-.41.02-.54.04M26.17,53.31c-.12-.26-.16-.38-.16-.38l-.26,1.01.68-.07-.26-.56Z"/>
      <path class="cls-1" d="M30.79,54.3c-.44.11-.59-.04-.78-.18-.12-.09-.55-.42-.83-.67l-.18.05.15.57c.07.27.11.36.16.41.05.04.13.07.24.05l.02.08c-.17.03-.41.09-.56.13-.15.04-.39.11-.56.16l-.02-.08c.05-.01.14-.06.18-.15.05-.1.02-.22-.07-.58l-.37-1.45c-.07-.27-.11-.36-.16-.41-.05-.04-.13-.07-.24-.05l-.02-.08c.17-.03.31-.07.46-.1.3-.08.37-.11.64-.18.1-.03.31-.08.49-.08.54,0,.69.36.73.53.06.22.08.64-.42.93,0,0,.61.42.93.64.27.18.45.3.63.26l.02.07s-.09.04-.45.13M28.8,52c-.09.02-.18.06-.18.06l.32,1.25s.1-.02.2-.04c.06-.02.12-.03.16-.06.05-.03.32-.15.17-.73-.15-.6-.51-.52-.68-.48"/>
      <path class="cls-1" d="M33.86,53.03c-.12.05-.41.19-.52.25l-.03-.07c.1-.04.15-.09.17-.13.02-.03.01-.07,0-.1-.02-.05-.07-.11-.16-.2l-.43-.47-.75.33.04.64c0,.13.01.2.04.26.02.04.04.06.07.07.06.02.15-.01.2-.03l.03.07c-.14.05-.24.09-.39.15-.13.06-.24.11-.36.18l-.03-.07c.11-.05.14-.16.14-.2.01-.06,0-.23,0-.52l-.06-2.38.27-.18,1.61,1.71c.22.23.37.37.4.39.04.03.13.08.24.03l.03.07c-.12.04-.39.15-.51.2M32.31,51.71c-.2-.21-.27-.31-.27-.31l.06,1.04.62-.28-.42-.45Z"/>
      <path class="cls-1" d="M34.18,48.96l-.64.76-.08-.04.22-.82.02-.02.47.06v.07ZM34.36,49.68c-.02.11.04.22.23.54l.76,1.29c.14.24.2.31.27.35.05.02.14.03.25-.02l.04.07c-.15.08-.38.21-.52.28-.13.08-.35.22-.49.31l-.04-.07s.12-.09.14-.19c.02-.11-.04-.22-.23-.54l-.76-1.29c-.14-.24-.2-.31-.27-.35-.05-.02-.14-.03-.25.02l-.04-.07c.15-.08.38-.21.52-.28.13-.08.35-.22.49-.31l.04.07s-.12.09-.14.19"/>
      <path class="cls-1" d="M37.18,51.06c-.16.12-.41.27-.61.34l-.04-.06c-.12-.16-.22-.27-.3-.37l.07-.05c.09.09.19.16.31.16.15,0,.3-.08.42-.17.45-.34.24-.64.18-.71-.17-.23-.38-.2-.66-.18l-.29.02c-.37.03-.65,0-.9-.33-.13-.17-.37-.67.36-1.22.31-.23.57-.36.57-.36,0,0,.05.08.13.2.15.2.19.25.19.25l-.07.05c-.07-.08-.16-.12-.25-.14-.16-.02-.33.07-.44.15-.36.27-.25.51-.16.62.14.18.31.19.58.16l.32-.03c.41-.04.69-.02.95.33.35.47.13.94-.38,1.32"/>
      <path class="cls-1" d="M39.82,48.82c-.64.64-1.4.63-2.02,0-.64-.64-.66-1.47-.02-2.12.64-.64,1.4-.63,2.02,0,.64.64.66,1.47.02,2.12M37.89,46.87c-.42.42-.17.97.32,1.46.51.51,1.09.74,1.48.34.42-.42.17-.97-.32-1.46-.51-.51-1.09-.74-1.48-.34"/>
      <path class="cls-1" d="M5.04,40.57c.07.18.08.28.08.28l-.08.03s-.01-.05-.03-.09c-.05-.12-.11-.2-.2-.25-.15-.09-.36-.08-.62.02-.58.24-.46.58-.38.79.03.07.08.16.08.16l1.78-.72c.32-.13.44-.17.5-.27.05-.09.05-.19,0-.36l.07-.03c.06.16.19.52.25.66.06.14.15.37.24.53l-.07.03c-.02-.05-.08-.13-.17-.16-.1-.04-.22,0-.57.15l-1.39.56c-.25.1-.34.15-.38.22-.03.05-.05.13-.02.25l-.07.03c-.06-.16-.13-.35-.18-.49-.09-.23-.16-.36-.26-.61-.03-.08-.12-.3-.14-.47-.05-.32.02-.67.44-.84.54-.22.94.1,1.14.58"/>
      <path class="cls-1" d="M5.42,37.42c.21.88-.21,1.52-1.06,1.72-.88.21-1.6-.22-1.81-1.1-.2-.88.21-1.52,1.06-1.72.88-.21,1.6.22,1.81,1.1M2.75,38.02c.13.58.74.66,1.41.5.7-.16,1.2-.54,1.07-1.07-.13-.58-.74-.66-1.41-.5-.7.16-1.2.54-1.07,1.07"/>
      <path class="cls-1" d="M2.14,33c.09.07.21.07.58.05l2.13-.12v.24s-2.1,1.78-2.1,1.78c-.09.08-.16.11-.16.11l1.73-.09c.27-.02.37-.03.43-.08.05-.04.09-.11.1-.23h.08c0,.17,0,.25,0,.41,0,.15.01.25.04.43h-.08c0-.05-.03-.14-.11-.2-.09-.07-.21-.07-.58-.05l-1.5.08c-.27.01-.37.03-.43.08-.05.04-.09.11-.1.23h-.08c0-.17,0-.35-.01-.5,0-.07-.02-.26-.04-.38l1.61-1.35c.14-.12.21-.15.21-.15l-1.27.07c-.27.01-.37.03-.43.08-.05.04-.09.11-.1.23h-.08c0-.17,0-.27,0-.42,0-.15-.01-.23-.04-.42h.08c0,.05.03.14.11.2"/>
      <path class="cls-1" d="M2.78,29.97c-.15,0-.25.04-.31.12-.07.09-.08.18-.11.45l-.02.16,2.03.19c.27.03.37.02.44-.02.11-.06.14-.25.14-.3h.08c-.02.18-.07.52-.08.67-.01.15-.04.5-.05.67h-.08s0-.23-.08-.32c-.08-.08-.19-.1-.56-.13l-1.9-.18-.02.16c-.03.27-.03.36.02.46.04.09.13.16.28.18v.09c-.21-.04-.57-.07-.57-.07l.22-2.27s.36.04.56.04v.09Z"/>
      <path class="cls-1" d="M2.7,28.29c.07.09.18.12.55.19l1.47.3c.27.06.37.06.44.03.05-.02.12-.08.15-.2l.08.02c-.04.16-.1.42-.14.57-.03.15-.07.41-.1.58l-.08-.02c.01-.06,0-.15-.05-.23-.07-.09-.18-.12-.55-.19l-1.47-.3c-.27-.06-.37-.06-.44-.03-.05.02-.12.08-.15.2l-.08-.02c.04-.16.1-.42.14-.57.03-.15.07-.41.1-.58l.08.02c-.01.06,0,.15.05.23"/>
      <path class="cls-1" d="M3.88,25.63c-.14-.04-.26-.01-.33.05-.08.07-.12.15-.2.41l-.11.34,1.02.33.11-.35c.05-.15.08-.26.04-.36-.03-.07-.09-.14-.21-.19l.03-.09c.09.03.15.06.41.14.26.08.31.09.41.12l-.03.09c-.11-.03-.19-.02-.25.02-.1.06-.15.19-.2.33l-.11.34.74.24c.26.08.35.1.42.07.12-.03.19-.22.2-.26l.08.03c-.06.16-.18.48-.22.63-.07.23-.1.33-.16.57l-.07-.02c.02-.05.02-.15-.03-.23-.06-.1-.17-.14-.53-.25l-1.43-.46c-.26-.08-.36-.1-.43-.08-.06.02-.13.07-.17.18l-.07-.02c.09-.22.14-.4.22-.64l.38-1.19s.34.11.54.16l-.03.09Z"/>
      <path class="cls-1" d="M4.21,23.86c.05.1.16.15.5.31l1.37.61c.25.11.34.14.42.12.06-.01.13-.06.19-.16l.07.03c-.08.15-.19.39-.25.53-.06.14-.16.38-.22.54l-.07-.03c.02-.05.04-.14,0-.23-.05-.1-.16-.15-.5-.31l-1.37-.61c-.25-.11-.34-.14-.42-.12-.06.01-.13.06-.19.16l-.07-.03c.08-.15.19-.39.25-.53.06-.14.16-.38.22-.54l.07.03c-.02.05-.04.14,0,.23"/>
      <path class="cls-1" d="M6.13,21.17c-.1-.06-.19-.06-.28-.03-.17.06-.3.24-.37.36-.2.33-.42.88.6,1.48.63.37,1.19.41,1.56-.22.08-.14.17-.33.11-.5-.02-.08-.08-.15-.18-.21l.05-.08c.1.07.22.15.39.25l.06.04c-.04.2-.18.49-.29.68-.28.47-.65.79-1.07.85-.28.04-.59-.03-.91-.22-.65-.38-.84-.99-.73-1.58.05-.23.17-.48.25-.62.17-.29.37-.53.39-.56.07.05.15.1.23.15.1.06.19.11.24.13l-.05.08Z"/>
      <path class="cls-1" d="M6.93,19.43c.02.11.12.19.41.41l1.19.91c.22.17.3.21.38.22.06,0,.14-.02.22-.11l.06.05c-.11.13-.28.34-.37.46-.09.12-.24.33-.34.48l-.06-.05s.07-.13.05-.23c-.02-.11-.12-.19-.41-.41l-1.19-.91c-.22-.17-.3-.21-.38-.22-.06,0-.14.02-.22.11l-.06-.05c.11-.13.28-.34.37-.46.09-.12.24-.33.34-.48l.06.05s-.07.13-.05.23"/>
      <path class="cls-1" d="M10.9,19.04c-.09.09-.31.33-.39.43l-.06-.05c.07-.08.1-.14.11-.18,0-.03-.01-.07-.04-.1-.04-.04-.11-.07-.22-.13l-.58-.27-.57.58.28.58c.06.12.09.18.13.22.03.03.06.04.09.04.07,0,.13-.07.18-.11l.06.05c-.11.1-.19.17-.3.28-.1.1-.18.19-.27.3l-.06-.05c.09-.08.07-.2.06-.24-.01-.06-.08-.21-.19-.48l-.94-2.18.18-.27,2.14.98c.29.13.48.21.51.21.05,0,.15.03.23-.06l.06.05c-.09.08-.3.29-.39.38M8.97,18.39c-.26-.12-.36-.19-.36-.19l.45.94.47-.49-.56-.26Z"/>
      <path class="cls-1" d="M13.12,14.03c-.02.11.05.21.25.53l.49.74c.18.27.29.45.33.63.12.54-.33.89-.62,1.08-.62.4-.97.32-1.22.14-.19-.14-.34-.38-.46-.57l-.55-.84c-.15-.23-.21-.3-.29-.33-.06-.02-.14-.03-.25.03l-.04-.07c.15-.09.37-.22.5-.31.13-.08.34-.23.48-.34l.04.07s-.11.1-.13.2c-.02.11.05.21.25.53l.64.97c.22.33.46.65,1,.3.55-.36.31-.75.12-1.04l-.71-1.08c-.15-.23-.21-.3-.29-.33-.06-.02-.14-.03-.25.03l-.04-.07c.15-.09.28-.16.4-.24.13-.08.29-.2.43-.3l.04.07s-.11.1-.13.2"/>
      <path class="cls-1" d="M16.5,12.45c-.03.11,0,.22.16.56l.85,1.96-.22.1-2.4-1.36c-.11-.06-.16-.11-.16-.11l.69,1.59c.11.25.16.33.23.38.05.03.14.05.25.01l.03.07c-.16.06-.24.09-.38.15-.14.06-.23.1-.39.19l-.03-.07c.05-.02.13-.08.16-.17.03-.11,0-.22-.16-.56l-.6-1.38c-.11-.25-.16-.33-.23-.38-.05-.03-.14-.05-.25-.01l-.03-.07c.16-.06.33-.12.47-.19.06-.03.24-.11.34-.17l1.83,1.04c.16.09.21.14.21.14l-.51-1.17c-.11-.25-.16-.33-.23-.38-.05-.03-.14-.05-.25-.01l-.03-.07c.16-.06.26-.09.4-.15.14-.06.21-.09.38-.18l.03.07c-.05.02-.13.08-.16.17"/>
      <path class="cls-1" d="M18.41,11.88c-.05.1-.02.22.09.58l.42,1.44c.08.26.12.35.18.4.05.04.13.07.24.04l.02.08c-.17.04-.42.1-.57.15-.15.04-.4.12-.56.18l-.02-.08c.05-.02.14-.06.18-.15.05-.1.02-.22-.09-.58l-.42-1.44c-.08-.26-.12-.35-.18-.4-.05-.04-.13-.07-.24-.04l-.02-.08c.17-.04.42-.1.57-.15.15-.04.4-.12.56-.18l.02.08c-.05.02-.14.06-.18.15"/>
      <path class="cls-1" d="M21.82,11.23c-.03.06-.07.22-.13.5l-.53,2.32-.32.11-1.14-2.06c-.16-.28-.26-.45-.29-.48-.03-.03-.1-.11-.22-.09v-.08c.11-.01.4-.05.53-.07.13-.02.45-.08.57-.11v.08c-.09.02-.15.05-.18.09-.02.03-.03.06-.02.1,0,.05.04.12.11.23l.69,1.27c.13.25.18.37.18.37,0,0,.02-.15.08-.42l.28-1.43c.02-.13.04-.2.03-.26,0-.04-.02-.07-.05-.08-.06-.04-.15-.02-.21-.02v-.08c.14-.02.25-.03.4-.05.14-.02.26-.05.4-.08v.08c-.11.02-.16.12-.18.16"/>
      <path class="cls-1" d="M24.61,13.79l-1.22.03c-.24,0-.48,0-.72.03v-.08c.05,0,.15-.03.21-.1.07-.08.07-.21.06-.58l-.04-1.5c0-.27-.02-.37-.07-.43-.04-.05-.11-.1-.22-.1v-.08c.24,0,.43,0,.67,0l1.25-.03s0,.36.03.56h-.09c0-.15-.07-.24-.16-.29-.1-.05-.18-.06-.45-.05h-.36s.03,1.08.03,1.08h.37c.16-.01.27-.02.35-.09.06-.05.1-.13.11-.26h.09c0,.09,0,.15,0,.43,0,.27.01.32.02.42h-.09c-.01-.11-.05-.18-.1-.23-.09-.08-.23-.08-.38-.08h-.36s.02.97.02.97c0,.2.04.22.28.22h.07c.24,0,.41-.02.52-.13.06-.06.1-.16.1-.29h.09c-.01.2,0,.61,0,.61"/>
      <path class="cls-1" d="M27.58,14.11c-.45-.06-.54-.25-.66-.46-.08-.13-.35-.59-.53-.93l-.18-.02-.07.59c-.03.27-.03.37,0,.44.03.05.09.11.21.14v.08c-.18-.03-.42-.07-.57-.09-.15-.02-.41-.04-.58-.05v-.08c.07,0,.16,0,.23-.07.08-.07.1-.19.15-.57l.19-1.49c.03-.27.03-.37,0-.44-.03-.05-.09-.11-.21-.14v-.08c.18.03.32.05.48.07.31.04.39.03.66.07.1.01.32.04.49.1.5.19.51.59.49.76-.03.23-.16.62-.73.71,0,0,.41.61.63.94.18.26.31.45.49.48v.07s-.11,0-.48-.04M26.58,11.25c-.09-.01-.19-.01-.19-.01l-.16,1.28s.1.02.2.03c.06,0,.12.01.17,0,.06,0,.35-.03.43-.61.08-.61-.29-.67-.45-.69"/>
      <path class="cls-1" d="M28.96,14.45c-.19-.05-.46-.15-.64-.27l.02-.07c.05-.2.08-.34.11-.46l.09.02c-.02.13,0,.25.06.34.09.12.25.19.39.23.54.15.65-.21.67-.29.07-.27-.07-.42-.27-.63l-.2-.21c-.25-.27-.4-.51-.29-.91.06-.21.3-.71,1.18-.47.38.1.64.22.64.22,0,0-.04.09-.07.22-.06.24-.07.31-.07.31l-.09-.02c.02-.11,0-.2-.05-.28-.08-.14-.26-.21-.39-.25-.43-.12-.55.12-.59.26-.06.22.04.36.23.55l.23.23c.29.29.44.53.33.96-.15.56-.66.68-1.28.51"/>
      <path class="cls-1" d="M32.46,12.76c-.1.05-.15.16-.28.51l-.55,1.4c-.1.26-.12.35-.11.43.02.06.06.13.17.18l-.03.07c-.16-.07-.4-.17-.54-.23-.14-.06-.39-.14-.55-.2l.03-.07c.05.02.15.03.23-.01.1-.05.15-.16.28-.51l.55-1.4c.1-.26.12-.35.11-.43-.01-.06-.06-.13-.17-.18l.03-.07c.16.07.4.17.54.23.14.06.39.14.55.2l-.03.07c-.05-.02-.15-.03-.23.01"/>
      <path class="cls-1" d="M33.77,16.33c-.14-.03-.36-.12-.66-.28-.19-.11-.33-.2-.5-.29-.13-.07-.3-.16-.45-.23l.04-.07s.14.05.23.02c.1-.04.17-.14.35-.47l.72-1.31c.13-.24.17-.33.16-.41,0-.06-.04-.14-.14-.2l.04-.07s.14.09.42.24c.12.07.36.19.63.34.34.19,1.38.8.75,1.96-.49.9-1.17.88-1.58.78M34.51,13.76c-.2-.11-.28-.14-.28-.14l-1.07,1.95c-.06.11-.08.17-.01.24.03.03.09.07.18.11.58.32,1,.15,1.43-.65.53-.97.08-1.34-.25-1.52"/>
      <path class="cls-1" d="M36.59,18.35c-.1-.08-.36-.27-.47-.34l.05-.06c.08.06.15.09.19.08.03,0,.07-.02.09-.05.03-.04.06-.11.1-.24l.2-.6-.64-.5-.55.34c-.11.07-.17.11-.21.15-.02.03-.04.06-.03.09,0,.07.08.12.13.16l-.05.06c-.12-.1-.19-.17-.32-.27-.11-.09-.21-.16-.33-.23l.05-.06c.09.08.2.05.25.03.06-.02.2-.1.46-.24l2.06-1.18.29.15-.74,2.23c-.1.3-.15.5-.16.54,0,.05-.01.15.09.22l-.05.06c-.09-.08-.32-.27-.42-.35M37.02,16.37c.09-.28.15-.38.15-.38l-.88.55.54.42.2-.58Z"/>
      <path class="cls-1" d="M38.51,20.17c-.12-.07-.31-.23-.54-.47-.15-.16-.25-.29-.39-.43-.1-.11-.23-.24-.35-.36l.06-.05s.12.09.22.09c.11,0,.2-.08.48-.34l1.1-1.02c.2-.19.26-.26.28-.34.01-.06,0-.15-.07-.24l.06-.05s.1.13.32.36c.1.1.28.29.49.52.27.29,1.06,1.19.1,2.09-.75.7-1.39.47-1.75.25M40.01,17.96c-.16-.17-.22-.22-.22-.22l-1.63,1.52c-.09.09-.13.14-.09.23.02.04.07.09.13.16.45.48.9.45,1.56-.17.81-.76.5-1.25.24-1.53"/>
      <path class="cls-1" d="M43.23,23.04c.1-.06.14-.14.16-.23.03-.18-.06-.38-.13-.5-.19-.33-.56-.8-1.59-.19-.63.37-.94.84-.56,1.48.08.14.2.3.38.34.08.02.17,0,.28-.06l.05.08c-.11.06-.23.12-.41.22l-.06.04c-.16-.14-.34-.39-.46-.59-.28-.47-.38-.95-.22-1.35.1-.26.31-.5.63-.69.65-.38,1.28-.26,1.73.12.18.15.33.38.42.52.17.29.29.58.31.61-.08.03-.16.09-.24.13-.1.06-.19.12-.24.15l-.05-.08Z"/>
      <path class="cls-1" d="M42.28,26.59c-.05-.12-.18-.42-.23-.53l.07-.03c.04.1.08.15.13.17.03.02.07.02.1,0,.05-.02.11-.07.21-.15l.48-.42-.31-.76-.65.02c-.13,0-.2,0-.26.03-.04.01-.06.03-.07.07-.03.06,0,.15.03.21l-.07.03c-.05-.14-.08-.25-.14-.39-.05-.13-.1-.24-.17-.37l.07-.03c.04.11.15.14.2.15.06.01.23.02.52.02l2.38.02.17.27-1.76,1.56c-.24.21-.38.36-.4.38-.03.04-.09.12-.04.24l-.07.03c-.04-.12-.14-.39-.19-.51M43.66,25.09c.22-.19.32-.26.32-.26l-1.04.03.25.63.47-.4Z"/>
      <path class="cls-1" d="M45.26,28.71c.14-.04.22-.13.25-.22.03-.11.02-.19-.05-.46l-.04-.16-1.97.51c-.27.07-.36.11-.4.16-.08.09-.04.29-.03.33l-.08.02c-.03-.17-.11-.51-.15-.65-.04-.15-.14-.49-.19-.65l.08-.02s.07.21.18.26c.1.05.21.03.57-.07l1.85-.48-.04-.16c-.07-.26-.1-.34-.18-.42-.07-.07-.18-.1-.32-.07l-.02-.09c.2-.03.55-.13.55-.13l.57,2.21s-.35.09-.54.15l-.02-.09Z"/>
      <path class="cls-1" d="M43.24,31.09c-.09-.9.4-1.48,1.27-1.57.9-.09,1.56.42,1.65,1.32.09.9-.4,1.48-1.27,1.57-.9.09-1.56-.42-1.65-1.32M45.97,30.84c-.06-.59-.65-.74-1.34-.67-.72.07-1.26.38-1.2.93.06.59.65.74,1.34.67.72-.07,1.26-.38,1.2-.93M46.74,31.35l-.43-.9.07-.06.66.55v.03s-.24.4-.24.4l-.07-.02Z"/>
      <path class="cls-1" d="M43.31,34.98l.06-1.19c.01-.24.03-.48.03-.72h.08c0,.06.01.15.09.22.08.08.2.09.58.11l1.5.07c.27.01.37,0,.44-.04.05-.03.11-.1.12-.22h.08c-.02.17-.04.49-.05.64,0,.15-.01.48-.01.65h-.08c0-.19-.03-.29-.11-.35-.08-.07-.22-.07-.56-.09l-1.67-.08c-.2,0-.22.02-.24.26v.07c-.02.24-.01.39.09.5.05.06.16.11.29.12v.09c-.2-.03-.61-.04-.61-.04"/>
      <path class="cls-1" d="M45.75,36.87c-.07-.09-.19-.11-.56-.17l-1.48-.24c-.27-.04-.37-.05-.44-.01-.05.03-.12.09-.14.2h-.08c.04-.18.09-.44.11-.59.02-.15.06-.41.07-.58h.08c0,.07,0,.16.06.24.07.09.19.11.56.17l1.48.24c.27.04.37.05.44.01.05-.03.12-.09.14-.2h.08c-.04.18-.09.44-.11.59-.02.15-.06.41-.07.58h-.08c0-.07,0-.16-.06-.24"/>
      <path class="cls-1" d="M44.57,39.96c.11.03.2,0,.28-.04.15-.1.23-.31.27-.44.1-.37.19-.96-.96-1.28-.7-.2-1.26-.1-1.46.61-.04.15-.08.36.02.51.04.07.12.13.23.16l-.03.09c-.12-.04-.25-.09-.44-.14l-.07-.02c0-.21.05-.52.11-.74.15-.53.43-.93.82-1.09.26-.11.57-.12.94-.02.73.21,1.07.75,1.11,1.34.01.24-.04.5-.09.66-.09.32-.22.61-.23.65-.08-.03-.17-.06-.26-.08-.11-.03-.22-.06-.27-.07l.02-.09Z"/>
      <path class="cls-1" d="M41.35,41.72c.05-.12.18-.42.22-.54l.07.03c-.04.1-.05.16-.04.21,0,.03.04.06.07.08.05.02.12.03.25.04l.63.06.34-.74-.46-.45c-.09-.09-.15-.14-.2-.17-.04-.02-.07-.02-.1,0-.06.02-.1.11-.13.16l-.07-.03c.07-.14.12-.23.19-.37.06-.13.11-.24.15-.38l.07.03c-.05.11,0,.21.03.25.03.05.15.18.35.39l1.63,1.73-.08.31-2.34-.19c-.32-.02-.52-.03-.56-.03-.05,0-.15.02-.2.14l-.07-.03c.06-.11.19-.37.24-.49M43.38,41.68c.29.03.41.05.41.05l-.74-.73-.28.62.62.06Z"/>
      <path class="cls-1" d="M25.53,22.65h.45c-.11-.11-.26-.29-.26-.47,0-.37.45-.63.45-1.12s-.34-.75-.34-1.2c0-.41.3-.69.3-1.03,0-.15-.07-.43-.19-.54h-.41c.07.11.19.39.19.54,0,.34-.3.55-.3,1.04,0,.45.37.82.37,1.19s-.45.66-.45,1.11c0,.19.07.36.19.47"/>
      <path class="cls-1" d="M25.75,25.63v.48s11.52,0,11.52,0v-.45s-3,0-3,0c1.09-.22,1.79-1.04,1.79-2.23,0-1.8-2.02-3.6-4.94-3.6-.71,0-1.32.09-1.84.25-.02-.07-.03-.15-.03-.22,0-.41.3-.7.3-1.03,0-.15-.07-.43-.19-.55h-.41c.07.11.19.39.19.54,0,.34-.3.55-.3,1.04,0,.12.03.24.07.35-.24.1-.45.2-.65.32-.09-.22-.21-.42-.21-.68,0-.41.3-.69.3-1.03,0-.15-.07-.43-.19-.54h-.41c.07.11.19.39.19.54,0,.34-.3.55-.3,1.04,0,.33.2.6.3.89-.55.42-.93.92-1.16,1.43,0-.03,0-.05,0-.08,0-.3.45-.67.45-1.05,0-.49-.34-.75-.34-1.2,0-.41.3-.69.3-1.03,0-.15-.07-.43-.19-.54h-.41c.07.11.19.39.19.54,0,.34-.3.55-.3,1.04,0,.45.37.82.37,1.19s-.45.66-.45,1.11c0,.19.07.36.19.47h.34s.07,0,.07,0c.37-1.12,1.54-2.42,4.08-2.42,2.77,0,4.49,1.77,4.49,3.19,0,1.27-.82,1.84-1.72,1.84-1.2,0-1.61-.75-1.61-1.38,0-.52.26-1.01.86-1.24-.3-.67-1.2-1.43-2.66-1.43-1.61,0-2.43.89-2.66,1.45h.45c.07-.11.24-.38.53-.58,0,.04,0,.07,0,.1,0,.19.07.37.19.48h.45c-.11-.11-.26-.29-.26-.47,0-.14.06-.25.14-.36.31-.12.7-.19,1.17-.19,1.2,0,1.8.53,2.06.86-.37.19-.79.81-.79,1.4,0,.85.52,1.56,1.6,1.78h-4.11c0-.78-1.01-.78-1.01-1s1.35-.67,1.35-1.57h-4.16c0,.89,1.36,1.32,1.36,1.55s-1,.28-1,.99M25.91,23.43h3.11c0,.56-1.2.76-1.2,1.21s.9.35.9,1.02h-2.51c0-.67.9-.57.9-1.02s-1.2-.65-1.2-1.21"/>
      <path class="cls-1" d="M32.46,27.32c-.07-.07-.26-.15-.52-.15-.71,0-1.27.56-1.27,1.31,0,.86.82,1.12.82,1.65,0,.3-.22.52-.41.64.11.11.34.19.6.19.75,0,1.27-.56,1.27-1.31s-.79-1.09-.79-1.61c0-.22.11-.49.3-.71M32.57,29.68c0,.56-.41.94-.9.94.11-.11.22-.37.22-.56,0-.64-.82-.94-.82-1.61,0-.56.37-.94.86-.94-.11.15-.19.41-.19.64,0,.6.82.94.82,1.54"/>
      <path class="cls-1" d="M37.55,28.03c0-.22.11-.49.3-.71-.07-.07-.26-.15-.52-.15-.71,0-1.27.56-1.27,1.31,0,.86.82,1.12.82,1.65,0,.3-.22.52-.41.64.11.11.34.19.6.19.75,0,1.27-.56,1.27-1.31s-.79-1.09-.79-1.61M37.06,30.61c.11-.11.22-.37.22-.56,0-.64-.82-.94-.82-1.61,0-.56.37-.94.86-.94-.11.15-.19.41-.19.64,0,.6.82.94.82,1.54,0,.56-.41.94-.9.94"/>
      <path class="cls-1" d="M35.16,27.32c-.07-.07-.26-.15-.52-.15-.71,0-1.27.56-1.27,1.31,0,.86.82,1.12.82,1.65,0,.3-.22.52-.41.64.11.11.34.19.6.19.75,0,1.27-.56,1.27-1.31,0-.75-.79-1.09-.79-1.61,0-.22.11-.49.3-.71M35.27,29.68c0,.56-.41.94-.9.94.11-.11.22-.37.22-.56,0-.64-.82-.94-.82-1.61,0-.56.37-.94.86-.94-.11.15-.19.41-.19.64,0,.6.82.94.82,1.54"/>
      <path class="cls-1" d="M18.69,23.03c0,.15.04.23.08.23s.11-.11.19-.15c0,.11.11.19.23.19.15,0,.23-.08.23-.23.11.04.15.15.23.15.04,0,.11-.04.11-.15,0-.23-.19-.3-.49-.3s-.53.19-.57.27M18.16,25.31c.04.08.11.15.27.15s.23-.08.27-.15c0-.04,0-.11-.04-.15-.04.04-.08.08-.23.08s-.19-.04-.23-.08c-.04.04-.04.11-.04.15M17.97,24.4c.23,0,.27.08.46.08s.23-.08.46-.08c0-.08-.04-.15-.08-.23-.3,0-.3.11-.38.11s-.08-.11-.38-.11c-.04.08-.08.15-.08.23M17.86,24.81l.04.19s.11-.04.19-.04c.11,0,.15.04.34.04s.23-.04.34-.04c.08,0,.15,0,.19.04l.04-.19s-.15-.08-.27-.08-.19.04-.3.04-.19-.04-.3-.04-.23.04-.27.08M17.1,23.07c0,.11.08.15.11.15.08,0,.11-.11.23-.15,0,.15.08.23.23.23.11,0,.23-.08.23-.19.08.04.15.15.19.15s.08-.08.08-.23c-.04-.08-.27-.27-.57-.27s-.49.08-.49.3M16.04,22.88c-.19.23-.04.42.19.42s.53-.11.83-.64c.19-.27.27-.46.61-.46.49,0,.46-.49.76-.49s.27.49.76.49c.34,0,.42.19.61.46.3.53.61.64.83.64s.38-.19.19-.42c-.04.08-.11.15-.23.15-.3,0-.42-.27-.64-.61.11.04.23.19.38.19.19,0,.23-.15.19-.27-.61,0-.46-.42-1.21-.42-.34,0-.46-.49-.87-.49s-.53.49-.87.49c-.76,0-.61.42-1.21.42-.04.11,0,.27.19.27.15,0,.27-.15.38-.19-.23.34-.34.61-.64.61-.11,0-.19-.08-.23-.15M15.32,23.48c0,.23.19.42.34.49-.04.04-.08.11-.08.27,0,.42.42.49.53.49-.08.08-.11.19-.11.3,0,.19.19.42.49.42.23,0,.38-.15.34-.34-.08.04-.15.08-.27.08-.15,0-.3-.08-.3-.23,0-.11.04-.19.08-.23.15-.04.23-.08.23-.27-.11.04-.23.04-.34.04-.19,0-.38-.11-.38-.3,0-.08.04-.15.08-.19.19.08.49.04.64-.08.15.87.83,2.24,1.86,2.2,1.02.04,1.71-1.33,1.86-2.2.15.11.46.15.64.08.04.04.08.11.08.19,0,.19-.19.3-.38.3-.11,0-.23,0-.34-.04,0,.19.08.23.23.27.04.04.08.11.08.23,0,.15-.15.23-.3.23-.11,0-.19-.04-.27-.08-.04.19.11.34.34.34.3,0,.49-.23.49-.42,0-.11-.04-.23-.11-.3.11,0,.53-.08.53-.49,0-.15-.04-.23-.08-.27.15-.08.34-.27.34-.49,0-.19-.11-.38-.42-.38.08.08.11.15.11.27,0,.23-.19.38-.49.38-.11,0-.34-.04-.42-.11.04-.19-.11-.3-.27-.38.04.23,0,.38-.04.49-.11.34-.61.42-.61.46,0,.11.11.15.19.15.15,0,.27-.08.38-.23-.15.64-.68,1.71-1.56,1.71s-1.4-1.06-1.56-1.71c.11.15.23.23.38.23.08,0,.19-.04.19-.15,0-.04-.49-.11-.61-.46-.04-.11-.08-.27-.04-.49-.15.08-.3.19-.27.38-.08.08-.3.11-.42.11-.3,0-.49-.15-.49-.38,0-.11.04-.19.11-.27-.3,0-.42.19-.42.38M14.79,19.92c0,.08.04.11.08.11h7.13s.08-.04.08-.11c0-.11-.08-.23-.3-.23h-6.68c-.23,0-.3.11-.3.23M13.72,21.66c0,.95.83,1.33,1.4,1.33.61,0,1.18-.46,1.18-1.1,0-.19-.08-.38-.15-.49.42.15.95.19,1.25.19.34,0,.57-.15.64-.27-1.44-.04-2.01-.38-2.66-.38-.49,0-.8.34-.8.72s.27.64.61.64c.3,0,.46-.19.46-.38,0-.11-.08-.19-.19-.19,0,.11-.08.19-.23.19s-.27-.11-.27-.27c0-.19.15-.34.42-.34.38,0,.57.23.57.57,0,.46-.3.76-.87.76s-.95-.42-.95-.99c0-.83.64-1.1,1.18-1.1.87,0,1.44.23,3.11.23s2.24-.23,3.11-.23c.53,0,1.18.27,1.18,1.1,0,.57-.38.99-.95.99s-.87-.3-.87-.76c0-.34.19-.57.57-.57.27,0,.42.15.42.34,0,.15-.11.27-.27.27s-.23-.08-.23-.19c-.11,0-.19.08-.19.19,0,.19.15.38.46.38.34,0,.61-.27.61-.64s-.3-.72-.8-.72c-.64,0-1.21.34-2.66.38.08.11.3.27.64.27.3,0,.83-.04,1.25-.19-.08.11-.15.3-.15.49,0,.64.57,1.1,1.18,1.1.57,0,1.4-.38,1.4-1.33,0-.83-.53-1.44-1.59-1.44-.91,0-1.52.27-3.11.27-1.59,0-2.2-.27-3.11-.27-1.06,0-1.59.61-1.59,1.44"/>
      <path class="cls-1" d="M16.72,31.18c-1.53,0-2.49.27-3.11.71h-.53c-.65-.44-1.58-.71-3.14-.71v-4.19c.08,0,.35.05.5.12v3.7c1.15,0,1.96.15,2.66.56h.45c.73-.42,1.56-.56,2.69-.56v-3.7c.15-.07.4-.12.48-.12v4.19ZM15.87,26.55v3.94c-.83,0-1.63.15-2.33.47v-3.85c.48-.44,1.51-.56,2.33-.56M10.82,26.55c.83,0,1.83.12,2.34.56v3.85c-.73-.32-1.51-.47-2.34-.47v-3.94ZM16.25,26.74v-.49c-1.13,0-2.11.07-2.91.56-.85-.49-1.73-.56-2.89-.56v.49c-.23-.07-.53-.12-.88-.12v5c1.88,0,2.79.27,3.44.64h.68c.63-.37,1.53-.64,3.41-.64v-5c-.33,0-.63.05-.85.12"/>
      <path class="cls-1" d="M19.63,43.33c-1.45,0-1.48,1.31-2.85,1.31s-1.48-1.34-2.85-1.34c-.74,0-1.16.36-1.54.7.1.11.22.24.31.34.3-.28.64-.57,1.2-.57,1.18,0,1.4,1.31,2.88,1.31,1.59,0,1.59-1.31,2.85-1.31s1.37,1.37,2.85,1.31v-.44c-1.37,0-1.37-1.31-2.85-1.31"/>
      <path class="cls-1" d="M19.63,45.1c-1.45,0-1.48,1.31-2.85,1.31s-1.48-1.34-2.85-1.34c-.15,0-.3.02-.42.05.14.12.47.42.49.42,1.11.03,1.3,1.31,2.78,1.31,1.59,0,1.59-1.31,2.85-1.31s1.37,1.37,2.85,1.31v-.44c-1.37,0-1.37-1.31-2.85-1.31"/>
      <path class="cls-1" d="M19.65,46.88c-.99,0-1.32.61-1.86,1,.13.09.29.13.43.21.42-.36.73-.78,1.43-.78,1.26,0,1.37,1.37,2.85,1.31v-.44c-1.37,0-1.37-1.31-2.85-1.31"/>
      <path class="cls-1" d="M11.45,42.91l.27.32c.86-.24,1.17-1.16,2.18-1.16,1.18,0,1.4,1.31,2.88,1.31,1.59,0,1.59-1.31,2.85-1.31s1.37,1.37,2.85,1.31v-.44c-1.37,0-1.37-1.31-2.85-1.31s-1.48,1.31-2.85,1.31-1.48-1.34-2.85-1.34c-1.26,0-1.6,1-2.48,1.31"/>
      <path class="cls-1" d="M13.44,41.78h.46s0-.98,0-.98c.04.07.19.11.35.11.62,0,1.31-.64,1.31-1.35l1.2-1.24-.23-.18-1.16,1.12c-.08-.07-.19-.11-.38-.11.38-.26.54-.56.54-.97l1.23-1.2-.23-.18-1.16,1.12c-.08-.07-.19-.11-.35-.11.23-.11.5-.52.54-.93l1.2-1.24-.23-.22-1.12,1.16c-.08-.11-.19-.19-.38-.19-.27,0-.5.11-.69.26.08-.11.12-.26.12-.49,0-.45-.27-.93-.58-1.08l-.04-1.35h-.31s-.04,1.35-.04,1.35c-.31.15-.58.64-.58,1.08,0,.22.04.34.08.45-.19-.11-.42-.22-.69-.22-.19,0-.27.07-.35.15l-1.12-1.12-.23.22,1.16,1.2c0,.37.15.67.42.93-.12,0-.23.04-.31.11l-1.08-1.09-.23.18,1.16,1.2c0,.3.15.64.5.93-.15,0-.27.07-.31.11l-1.12-1.09-.23.18,1.2,1.2c0,.71.69,1.38,1.31,1.38.15,0,.31-.04.38-.11v.98ZM13.67,38.78c-.08-.3-.23-.49-.46-.64.23,0,.42-.04.46-.37.04.34.23.37.46.37-.23.15-.38.34-.46.64M14.21,40.61c-.19,0-.27-.11-.27-.26,0-.34.38-.9.92-.9.19,0,.35.04.35.19,0,.45-.42.97-1,.97M13.1,40.61c-.54,0-1-.52-1-.97,0-.15.12-.19.23-.19.58,0,1.08.49,1.08.9,0,.15-.12.26-.31.26M13.67,40.16c-.08-.34-.23-.49-.42-.64.23,0,.38-.07.42-.34.04.26.19.34.42.34-.19.15-.35.3-.42.64M14.17,39.23c-.19,0-.23-.11-.23-.22,0-.34.38-.86.92-.86.19,0,.27.04.27.19,0,.45-.38.9-.96.9M12.25,38.11c.65,0,1.15.56,1.15.9,0,.15-.12.22-.27.22-.58,0-1.08-.49-1.08-.93,0-.15.08-.19.19-.19M14.94,36.73c.15,0,.23.07.23.22,0,.37-.42.93-1,.93-.15,0-.23-.07-.23-.22,0-.34.5-.93,1-.93M12.37,36.73c.5,0,1.04.6,1.04.93,0,.15-.12.22-.31.22-.54,0-1-.56-1-.93,0-.15.08-.22.27-.22M13.67,35.34c.15,0,.46.45.46.9,0,.52-.27.9-.46.9s-.46-.37-.46-.9c0-.45.31-.9.46-.9"/>
      <path class="cls-1" d="M28.1,45.57c-.19-.1-.41-.11-.61-.05-.2.07-.37.21-.47.4-.1.19-.11.41-.05.62.07.2.21.37.4.47.16.08.33.11.5.08.04,0,.08-.02.11-.03.2-.07.37-.21.47-.4.1-.19.11-.41.05-.61-.07-.2-.21-.37-.4-.47M28.2,46.53c-.06.12-.17.22-.3.26-.13.04-.27.03-.4-.03-.12-.06-.22-.17-.26-.3-.04-.13-.03-.27.03-.4.06-.12.17-.22.3-.26.13-.04.27-.03.4.03.12.06.22.17.26.3.04.13.03.27-.03.4"/>
      <path class="cls-1" d="M32.17,44.27c-.17-.09-.36-.1-.54-.04-.37.12-.57.52-.45.89.06.18.18.32.35.41.14.07.29.09.44.07.03,0,.07-.01.1-.02.18-.06.32-.18.41-.35.09-.17.1-.36.04-.54-.06-.18-.18-.32-.35-.41M32.22,45.09c-.05.1-.14.17-.24.21-.11.04-.22.03-.32-.02-.1-.05-.17-.14-.21-.24-.07-.22.05-.46.27-.53.02,0,.04-.01.06-.01.09-.02.18,0,.26.04.1.05.17.14.21.24.03.11.03.22-.02.32"/>
      <path class="cls-1" d="M34.11,44.97c-.21-.32-.65-.34-.88-.33l-.11-.31c.18-.12.48-.38.53-.73v-.1s-.59-.55-.59-.55l-.1.04c-.4.16-.58.43-.66.61l-.3-.07c0-.24-.06-.66-.42-.87l-.07-.04-.69.23-.03.07c-.17.38.03.76.17.95l-.2.23c-.17-.1-.47-.22-.89-.11l-.11.03-.17.8.07.07c.05.05.11.1.17.13-.22,0-.43.11-.56.19l-.21-.24c.15-.18.37-.5.27-.83l-.02-.07-.65-.32-.07.02c-.33.11-.47.47-.52.7l-.32-.03c0-.23-.07-.61-.38-.77l-.07-.03-.72.23-.03.07c-.16.31.01.66.14.85l-.24.21c-.17-.15-.5-.37-.83-.26l-.07.02-.33.64.02.07c.11.33.48.46.71.52l-.03.32c-.23.01-.62.08-.78.39l-.03.07.23.7.07.03c.28.14.65-.03.85-.15l.22.25c-.16.18-.38.5-.28.82l.02.07.65.32.07-.02c.35-.12.49-.47.54-.7l.31.03c.02.21.09.57.38.77l.07.05.73-.24.03-.08c.12-.34-.04-.66-.15-.85l.23-.21c.17.15.49.36.84.25l.07-.02.33-.64-.02-.07c-.1-.32-.48-.45-.71-.5l.03-.34c.14-.02.33-.06.5-.15-.01.06-.02.12-.02.18v.07s.55.52.55.52l.1-.03c.42-.14.61-.43.69-.62l.31.06c0,.24.04.66.4.88l.07.04.73-.24.03-.08c.17-.39-.05-.76-.19-.94l.21-.23c.18.11.5.23.93.1l.1-.03.14-.74-.04-.06ZM30.36,45.68l-.17-.52c.12.02.23.02.31.02l.09.31c-.07.04-.15.11-.24.18M29.43,45.91h-.16s-.1.99-.1.99l.18.02c.15.01.44.09.55.23l-.18.35c-.26.02-.52-.28-.52-.28l-.12-.14-.75.67.12.13s.24.29.2.56l-.37.12c-.19-.2-.16-.57-.16-.57v-.18s-.98-.1-.98-.1v.18s-.04.4-.27.54l-.36-.18c0-.18.2-.41.31-.51l.13-.12-.67-.75-.13.1c-.14.11-.39.24-.55.22l-.13-.38c.13-.14.46-.15.57-.14h.17s.09-.98.09-.98l-.18-.02c-.12-.01-.44-.08-.55-.24l.18-.35c.2,0,.44.21.52.29l.12.13.76-.68-.12-.13c-.07-.08-.25-.34-.22-.53l.41-.13c.14.13.14.44.13.56l-.02.18,1.01.1.02-.18c.01-.11.08-.43.24-.54l.36.18c0,.2-.21.44-.3.52l-.13.12.66.74.13-.1c.09-.07.37-.24.56-.2l.11.33c-.11.11-.39.17-.57.17M33.7,45.49c-.37.08-.61-.14-.62-.15l-.13-.13-.66.74.12.12s.31.31.25.61l-.4.13c-.23-.21-.16-.63-.16-.63l.03-.17-.79-.17-.18-.04-.03.18s-.07.33-.41.49l-.27-.26c.04-.22.33-.4.45-.46l.14-.07-.26-.88-.15.02s-.4.05-.64-.1l.08-.38c.38-.06.59.14.59.15l.14.14.65-.74-.11-.12s-.3-.32-.23-.61l.38-.12c.23.19.17.63.17.63l-.02.16.77.17.19.04.03-.19s.05-.3.39-.47l.29.26c-.08.22-.35.41-.46.46l-.14.07.31.87.15-.03c.12-.02.47-.04.63.11l-.07.37Z"/>
      <path class="cls-1" d="M37.15,37.68l-2.77,2.1v-1.87s-2.94,1.87-2.94,1.87v-1.36s-2.89,1.76-2.89,1.76v.54s2.52-1.53,2.52-1.53v1.33s2.94-1.87,2.94-1.87v1.87s3.74-2.75,3.74-2.75l-.34-.42h1.16v1.33s-.45-.48-.45-.48l-4.64,3.62v-1.93s-2.83,1.81-2.83,1.81v-1.19s-2.6,1.64-2.6,1.64v.54s2.24-1.44,2.24-1.44v1.19s2.83-1.81,2.83-1.81v2.01s5.01-3.96,5.01-3.96l.85.91v-2.6s-2.38,0-2.38,0l.57.71ZM32.93,34.93v1.5s2.72-1.59,2.72-1.59v1.59s2.49-1.73,2.49-1.73l-.31-.42h1.16v1.25s-.48-.48-.48-.48l-3.34,2.46v-1.67s-3,1.87-3,1.87v-1.3s-2.77,1.61-2.77,1.61v.54s2.41-1.42,2.41-1.42v1.33s2.97-1.87,2.97-1.87v1.67s3.74-2.75,3.74-2.75l.85.91v-2.52s-2.32,0-2.32,0l.54.68-1.56,1.1v-1.59s-2.72,1.59-2.72,1.59v-1.5s-3.14,1.7-3.14,1.7v.54s2.77-1.5,2.77-1.5Z"/>
      <path class="cls-1" d="M23.7,37.19c.13.11.22.16.45.2.24-.04.33-.09.45-.2v-4.73h2.45s0-.96,0-.96h-2.45v-2.19s-.91,0-.91,0v2.19h-2.45s0,.96,0,.96h2.45v4.73ZM24.98,37.48c-.18.13-.56.33-.84.36-.27-.04-.65-.24-.84-.36v-4.64s-2.48,0-2.48,0v-1.7h2.48s0-2.24,0-2.24h1.67v2.24s2.48,0,2.48,0v1.7h-2.48s0,4.64,0,4.64Z"/>
      <polygon class="cls-1" points="24.06 39.62 24.06 39.83 23.26 39.83 23.26 38.82 24.03 38.82 24.03 39.03 23.49 39.03 23.49 39.25 23.96 39.25 23.96 39.43 23.49 39.43 23.49 39.62 24.06 39.62"/>
      <polygon class="cls-1" points="25.1 39.05 24.77 39.05 24.77 39.83 24.54 39.83 24.54 39.05 24.21 39.05 24.21 38.82 25.1 38.82 25.1 39.05"/>
      <polygon class="cls-1" points="26.65 38.67 26.81 38.83 26.27 39.34 25.57 38.62 25.74 38.46 26.28 39.03 26.65 38.67"/>
      <path class="cls-1" d="M27.5,37.91c-.1-.02-.19-.04-.27-.06l-.27.39c.04.07.1.15.15.24l-.14.19c-.37-.59-.57-.94-.57-.94l.16-.22s.39.06,1.08.22l-.14.19ZM27.02,37.8c-.25-.05-.38-.08-.38-.08,0,0,.07.12.2.33l.18-.26Z"/>
      <path class="cls-1" d="M27.86,36.53c.18.08.21.24.11.45l-.23.52-.92-.41.21-.46c.09-.21.23-.25.38-.19.11.05.13.13.13.18.05-.08.17-.15.32-.08M27.09,36.96l.2.09.11-.23c.04-.09.02-.13-.04-.16-.07-.03-.12,0-.16.08l-.1.23ZM27.78,36.91c.04-.09.03-.15-.03-.18-.06-.03-.12,0-.16.09l-.13.29.2.09.13-.3Z"/>
      <path class="cls-1" d="M27.34,35.63c.08-.32.3-.49.62-.41.32.08.45.32.38.64-.08.32-.3.48-.62.41-.32-.08-.45-.32-.38-.64M28.14,35.81c.04-.18-.02-.33-.22-.38-.2-.05-.32.06-.36.24-.04.18.02.33.22.38.2.05.32-.06.36-.24"/>
      <path class="cls-1" d="M28.53,34.38c-.11.04-.22.1-.31.14v.03s-.02.25-.02.25l.3.02-.02.22-1-.07.03-.47c.02-.26.15-.4.38-.38.14,0,.24.08.29.19.09-.05.23-.12.36-.18l-.02.25ZM28,34.79l.02-.24c0-.14-.03-.19-.13-.2-.1,0-.15.05-.16.18l-.02.24.29.02Z"/>
      <polygon class="cls-1" points="20.71 34.73 20.48 34.75 20.53 35.22 20.34 35.24 20.3 34.76 19.91 34.8 19.89 34.57 20.9 34.48 20.97 35.27 20.76 35.29 20.71 34.73"/>
      <rect class="cls-1" x="20.04" y="35.56" width="1.01" height=".23" transform="translate(-6.98 5.06) rotate(-12.02)"/>
      <path class="cls-1" d="M21.27,36.37c.14.36.04.59-.27.71-.3.12-.53,0-.67-.35l-.15-.38.94-.36.15.38ZM20.54,36.67c.07.2.2.26.37.2.18-.07.22-.2.15-.4l-.07-.19-.52.2.07.19Z"/>
      <polygon class="cls-1" points="21.36 38.24 21.18 38.36 20.75 37.68 21.6 37.14 22.02 37.8 21.84 37.91 21.55 37.45 21.37 37.56 21.62 37.96 21.47 38.06 21.21 37.66 21.05 37.76 21.36 38.24"/>
      <path class="cls-1" d="M22.26,38.63s.03,0,.07-.04c.05-.04.06-.11-.04-.23-.1-.11-.17-.13-.24-.07-.16.14.4.51.12.76-.14.13-.31.1-.51-.12-.22-.24-.21-.41-.07-.54,0,0,.07.03.17.13-.09.08-.07.16.04.28.11.12.17.13.22.08.15-.14-.41-.5-.11-.77.13-.12.3-.1.5.12.23.25.19.39.09.48-.06.05-.11.06-.11.06l-.14-.16Z"/>
    </g>
  </g>
</svg>