<?xml version="1.0" encoding="UTF-8"?>
<svg id="Capa_2" data-name="Capa 2" xmlns="http://www.w3.org/2000/svg" viewBox="0 0 138.39 33.87">
  <defs>
    <style>
      .cls-1 {
        fill: #1d1d1b;
      }

      .cls-2 {
        fill: #be1823;
      }
    </style>
  </defs>
  <g id="Capa_2-2" data-name="Capa 2">
    <g>
      <path class="cls-1" d="M.79,9.03C.26,8.5,0,7.76,0,6.83c0-.63.13-1.19.4-1.7s.64-.9,1.11-1.19c.47-.29.99-.44,1.56-.44,1.46,0,2.19.74,2.19,2.22,0,.26-.03.5-.09.73l-.16.16H1.64c0,.63.16,1.12.45,1.45s.7.5,1.22.5c.45,0,.97-.13,1.55-.39l.09.05.21.64c-.32.24-.69.46-1.12.66s-.79.3-1.1.3c-.91,0-1.63-.27-2.16-.8ZM3.43,5.79c.1,0,.17-.03.2-.07.03-.03.05-.11.05-.23,0-.64-.27-.97-.82-.97-.34,0-.62.12-.83.35-.21.23-.34.57-.38,1.02l1.79-.1Z"/>
      <path class="cls-2" d="M6.75,11.25c.02-.39.05-1.17.08-2.34.04-1.17.06-2.02.06-2.56s-.02-1.41-.06-2.59c-.04-1.18-.07-1.96-.08-2.35l2.82-.14.05.1-.09.72-1.36.27v7.95s1.4.27,1.4.27l.05.12-.09.69-2.78-.14Z"/>
      <path class="cls-1" d="M13.89,9.58c-.22-.17-.35-.42-.4-.75l-.1-.04c-.28.29-.55.52-.81.71-.26.19-.47.28-.63.28-.51,0-.94-.18-1.28-.54-.34-.36-.51-.81-.51-1.35,0-.27.07-.5.21-.7s.32-.32.55-.38l2.52-.59v-.31c.01-.37-.09-.67-.29-.87-.2-.21-.47-.31-.82-.31-.23,0-.49.06-.76.18-.27.12-.53.26-.76.44l-.12-.05-.22-.78c.43-.24.89-.47,1.37-.68.48-.21.82-.31,1.02-.31.72,0,1.26.16,1.62.49.36.33.54.75.54,1.28,0,.19-.04.58-.12,1.17-.1.84-.14,1.35-.14,1.51s.04.3.13.39c.09.1.2.14.34.14.1,0,.22-.02.33-.07.12-.05.21-.1.29-.15l.2.27c-.16.28-.35.55-.58.8-.23.26-.45.42-.67.48-.38,0-.68-.08-.91-.25ZM12.9,8.44c.18-.07.34-.16.48-.27l.04-1.24-1.4.39c-.21.05-.31.2-.31.43s.07.42.2.57.31.23.53.23c.13,0,.28-.03.46-.1Z"/>
      <path class="cls-1" d="M20.54,8.89l-.08-.03c-.84.61-1.35.91-1.53.91-.76,0-1.36-.26-1.81-.77-.45-.51-.67-1.21-.67-2.09,0-.64.14-1.22.42-1.74.28-.52.67-.92,1.17-1.21.5-.29,1.06-.44,1.69-.44.21,0,.43.01.68.04v-1.68c0-.27-.04-.46-.12-.57s-.22-.16-.42-.16c-.07,0-.14,0-.2.01s-.1.02-.12.03l.08-.77c.51-.06,1.03-.14,1.55-.23.52-.1.86-.16,1.02-.2l.12.22c-.11.17-.21,1.01-.29,2.54-.08,1.53-.12,3.26-.12,5.2,0,.17.04.3.11.39.07.1.18.14.31.14.1,0,.19-.02.27-.05.09-.03.16-.07.22-.1.06-.03.09-.06.11-.07l.21.27c-.03.05-.1.17-.22.34s-.28.36-.48.55c-.2.19-.4.32-.61.39-.77,0-1.21-.31-1.3-.94ZM19.85,8.48c.15-.07.28-.13.38-.2.1-.07.16-.12.19-.14v-3.3s-.07-.03-.16-.07c-.09-.03-.2-.07-.34-.1-.14-.03-.3-.05-.47-.05-.43,0-.76.16-.99.48-.23.32-.35.77-.35,1.35,0,.64.12,1.16.36,1.55.24.39.55.59.95.59.14,0,.28-.03.44-.1Z"/>
      <path class="cls-2" d="M23.31,11.3l.09-.72,1.36-.27V2.36s-1.4-.27-1.4-.27l-.05-.12.09-.7,2.78.14c-.02.39-.05,1.17-.08,2.33-.04,1.16-.06,2.02-.06,2.57s.02,1.4.06,2.58c.04,1.18.07,1.97.08,2.36l-2.82.14-.05-.09Z"/>
      <path class="cls-1" d="M5.35,19.99c-.11.53-.2,1.16-.28,1.89l-.1.11c-1.3-.05-2.36-.07-3.17-.07-.57,0-1.15.03-1.74.1l.07-.68c.29-.04.48-.12.58-.24s.15-.33.15-.63v-3.89c0-.22-.01-.37-.05-.44-.04-.07-.13-.11-.27-.11-.09,0-.19,0-.32.02l-.06-.09.08-.61h.2c.48.02,1.03.03,1.64.03,1.52,0,2.55-.04,3.1-.12l.08.11c-.05.25-.1.55-.15.9-.04.35-.07.66-.09.95l-.91.06.02-.41c0-.2-.03-.35-.09-.43s-.17-.14-.35-.17c-.17-.03-.46-.05-.87-.05-.18,0-.3,0-.37.02-.07.01-.11.04-.14.09-.02.05-.04.13-.05.23l-.07,1.6h.96c.14.01.32,0,.54-.02.21-.02.43-.04.65-.07l.08.09-.14.87c-.09,0-.16,0-.2-.01-.48-.01-.85-.02-1.13-.02-.21,0-.47.02-.79.06l-.02,1.46c0,.19.01.33.05.41.03.08.09.14.17.16.08.03.23.04.44.04.45,0,.77-.03.97-.08.2-.05.34-.15.43-.31s.16-.42.2-.78l.84-.07.07.09Z"/>
      <path class="cls-1" d="M6.81,21.98c-.2-.04-.36-.08-.47-.13-.12-.04-.19-.07-.21-.09l-.06-.1c.03-.18.05-.4.08-.64.02-.24.04-.48.06-.7l.56-.05c0,.69.31,1.03.91,1.03.2,0,.36-.04.49-.13s.19-.19.19-.32c0-.14-.07-.26-.2-.37s-.41-.27-.82-.46c-.41-.19-.7-.39-.89-.61-.18-.21-.28-.46-.28-.75,0-.31.09-.58.27-.81.18-.23.42-.42.74-.55.32-.13.68-.2,1.09-.2.2,0,.38.01.55.04s.3.06.4.09c.1.03.16.05.19.06l.05.1c-.01.07-.04.24-.09.51-.04.26-.08.53-.11.81l-.57.04v-.18c0-.24-.05-.41-.16-.53s-.3-.17-.54-.17c-.18,0-.33.04-.45.13-.12.09-.18.19-.18.32s.05.25.16.36c.11.11.29.22.54.35.4.19.71.36.92.51.21.15.36.3.45.45.08.15.13.34.13.55,0,.28-.09.53-.28.77s-.44.42-.76.55-.67.2-1.05.2c-.25,0-.47-.02-.67-.06Z"/>
      <path class="cls-1" d="M10.77,21.42c-.4-.42-.6-.99-.6-1.72,0-.5.11-.95.32-1.35.21-.39.51-.7.88-.92.38-.22.8-.33,1.28-.33.22,0,.43.02.63.05.19.03.35.06.46.09s.18.05.21.07l.04.09s-.03.13-.06.28c-.03.15-.06.34-.1.57-.03.23-.06.47-.07.72l-.65.04v-.34c0-.23-.06-.41-.17-.54-.11-.13-.27-.19-.47-.19-.32,0-.56.12-.73.35s-.25.57-.25,1c0,.56.1.99.3,1.29.2.3.48.45.84.45.17,0,.33-.02.49-.07.16-.04.29-.09.4-.14.11-.05.17-.08.2-.09l.07.03.16.52s-.16.12-.33.24c-.17.12-.37.23-.59.35s-.43.17-.61.17c-.69,0-1.24-.21-1.64-.63Z"/>
      <path class="cls-1" d="M14.99,18.1c-.05-.08-.14-.12-.27-.12-.06,0-.12,0-.16.01s-.08.01-.09.02l.06-.59c.35-.05.72-.11,1.1-.18.38-.07.63-.12.74-.15l.09.16c-.07.17-.14.54-.19,1.12-.05.57-.08,1.17-.08,1.78,0,.28.05.49.16.62.11.14.27.2.48.2.14,0,.27-.03.4-.1.13-.06.29-.16.48-.29v-2.1c0-.19-.03-.32-.09-.39s-.18-.11-.35-.11h-.18s.08-.57.08-.57c.37-.05.75-.11,1.14-.17s.64-.11.76-.13l.09.16c-.07.16-.14.55-.19,1.19-.05.64-.08,1.34-.08,2.11,0,.13.03.23.1.31.07.07.16.11.27.11.07,0,.15-.01.22-.04.07-.03.13-.05.18-.08.05-.03.08-.04.09-.05l.15.2s-.1.14-.2.29c-.11.15-.24.29-.4.44-.16.15-.31.24-.45.28-.62,0-.97-.26-1.04-.79l-.08-.04c-.26.24-.49.43-.71.59-.21.15-.36.23-.43.23-.52,0-.91-.11-1.18-.33-.27-.22-.41-.53-.41-.95l.07-2.28c0-.18-.03-.3-.08-.38Z"/>
      <path class="cls-1" d="M20.76,21.42c-.41-.42-.62-.99-.62-1.72,0-.49.11-.93.32-1.33.21-.39.5-.71.87-.93.37-.23.78-.34,1.22-.34,1.14,0,1.71.58,1.71,1.73,0,.2-.02.39-.07.57l-.12.12h-2.64c0,.5.12.88.35,1.14.23.26.55.39.95.39.35,0,.76-.1,1.21-.31l.07.04.16.5c-.25.19-.54.36-.87.52s-.62.23-.86.23c-.71,0-1.28-.21-1.69-.63ZM22.82,18.88c.08,0,.13-.02.16-.05.02-.03.04-.09.04-.18,0-.5-.21-.76-.64-.76-.27,0-.48.09-.65.28-.17.18-.27.45-.3.8l1.4-.08Z"/>
      <path class="cls-1" d="M24.77,21.39c.16-.03.27-.08.34-.15.07-.06.12-.15.14-.24.02-.1.03-.25.03-.44v-4.74c0-.18-.02-.31-.05-.39-.03-.08-.09-.13-.18-.15s-.23-.03-.44-.02l-.04-.04.06-.54c.82-.11,1.51-.22,2.06-.33l.07.19c-.1.22-.17.92-.23,2.08-.06,1.16-.09,2.57-.09,4.22,0,.17.02.29.07.36s.13.1.23.1l.34-.02.03.06-.11.6h-.34c-.38-.02-.65-.03-.82-.03-.26,0-.65.03-1.16.09l.07-.62Z"/>
      <path class="cls-1" d="M30.41,21.84c-.17-.13-.28-.33-.31-.59l-.08-.03c-.22.22-.43.41-.63.56-.2.15-.37.22-.49.22-.4,0-.73-.14-1-.42-.27-.28-.4-.63-.4-1.06,0-.21.05-.39.16-.55.11-.15.25-.25.43-.3l1.97-.46v-.24c0-.29-.07-.52-.22-.68-.16-.16-.37-.24-.64-.24-.18,0-.38.05-.6.14-.21.09-.41.21-.6.34l-.09-.04-.17-.61c.34-.19.7-.37,1.07-.53.37-.16.64-.25.8-.25.57,0,.99.13,1.27.38s.42.59.42,1.01c0,.15-.03.46-.09.92-.07.66-.11,1.05-.11,1.18s.03.23.1.31c.07.07.16.11.27.11.08,0,.17-.02.26-.06.09-.04.17-.08.23-.12l.15.21c-.12.22-.27.43-.45.63-.18.2-.36.32-.53.37-.3,0-.54-.07-.71-.2ZM29.64,20.95c.14-.05.26-.13.37-.21l.03-.97-1.09.31c-.16.04-.24.15-.24.34s.05.32.16.44.24.18.41.18c.1,0,.22-.03.36-.08Z"/>
      <path class="cls-1" d="M37.39,21.31l-.06-.02c-.66.48-1.06.71-1.19.71-.59,0-1.06-.2-1.41-.6-.35-.4-.53-.95-.53-1.63,0-.5.11-.96.33-1.36.22-.4.53-.72.92-.95s.83-.34,1.32-.34c.16,0,.34.01.53.03v-1.32c0-.21-.03-.36-.1-.44-.06-.08-.18-.13-.33-.13-.05,0-.11,0-.15.01s-.08.01-.09.02l.06-.6c.4-.05.81-.11,1.21-.18.41-.07.67-.13.8-.15l.09.17c-.09.13-.16.79-.22,1.99-.06,1.2-.09,2.55-.09,4.07,0,.13.03.23.09.31s.14.11.24.11c.07,0,.15-.01.21-.04.07-.03.12-.05.17-.08.04-.03.07-.04.09-.05l.16.21s-.08.13-.17.27c-.1.14-.22.28-.37.43-.15.15-.31.25-.47.31-.61,0-.95-.25-1.02-.73ZM36.85,20.99c.12-.05.22-.1.3-.16.08-.05.13-.09.15-.11v-2.58s-.05-.02-.12-.05c-.07-.03-.16-.05-.27-.08-.11-.03-.23-.04-.37-.04-.33,0-.59.12-.78.37-.18.25-.28.6-.28,1.06,0,.5.09.91.28,1.21.19.31.43.46.74.46.11,0,.22-.03.34-.08Z"/>
      <path class="cls-1" d="M40.29,21.42c-.41-.42-.62-.99-.62-1.72,0-.49.11-.93.32-1.33.21-.39.5-.71.87-.93.37-.23.78-.34,1.22-.34,1.14,0,1.71.58,1.71,1.73,0,.2-.02.39-.07.57l-.12.12h-2.64c0,.5.12.88.35,1.14.23.26.55.39.95.39.35,0,.76-.1,1.21-.31l.07.04.16.5c-.25.19-.54.36-.87.52s-.62.23-.86.23c-.71,0-1.28-.21-1.69-.63ZM42.36,18.88c.08,0,.13-.02.16-.05.02-.03.04-.09.04-.18,0-.5-.21-.76-.64-.76-.27,0-.48.09-.65.28-.17.18-.27.45-.3.8l1.4-.08Z"/>
      <path class="cls-1" d="M49.27,21.92l.05-.6c.23-.02.4-.04.51-.07s.18-.06.22-.1c.04-.04.06-.11.06-.2,0-.08-.02-.2-.05-.36l-.21-.79c-.35-.01-.67-.02-.94-.02-.12,0-.38.02-.77.05l-.21.02-.26.79c-.04.15-.06.26-.06.32,0,.12.04.21.11.26.07.05.2.07.37.07h.44s.05.07.05.07l-.07.62c-.1,0-.3-.02-.61-.04-.31-.02-.61-.03-.88-.03-.29,0-.54,0-.77.01-.23,0-.38.01-.45.02l.07-.66c.16-.03.29-.09.39-.19.1-.1.2-.27.29-.5l1.83-5.17,1.56-.16.11.05c.1.39.31,1.18.64,2.38.32,1.2.6,2.16.83,2.89.07.24.17.42.29.52.12.1.29.16.52.18l.04.07-.07.59c-.09,0-.26-.01-.5-.02-.25,0-.49-.01-.75-.01-.36,0-.71.01-1.06.04s-.56.04-.66.05l-.05-.08ZM48.91,19c.07,0,.33-.01.76-.03l-.6-2.28h-.13s-.76,2.31-.76,2.31h.73Z"/>
      <path class="cls-1" d="M52.93,21.18c.07-.1.11-.28.11-.54v-2.03c0-.23-.03-.39-.09-.47-.06-.08-.18-.13-.35-.13h-.19s-.05-.06-.05-.06l.06-.51c.36-.06.73-.13,1.11-.2.38-.07.62-.12.73-.14l.09.09c-.01.06-.03.19-.06.39s-.04.39-.05.57l.06.04c.21-.32.44-.57.7-.74.26-.18.5-.27.73-.27.09,0,.17,0,.23,0s.1.01.12.02l.04.08c-.02.12-.05.37-.1.75s-.08.75-.1,1.1l-.65.04c0-.33-.02-.54-.06-.65-.04-.11-.11-.16-.23-.16-.11,0-.22.04-.35.12s-.24.19-.35.34c0,.19-.02.5-.05.93-.02.43-.04.78-.05,1.04,0,.18.03.3.09.37s.16.1.31.1c.1,0,.2,0,.31-.01.1,0,.17-.01.2-.02l.03.06-.11.67c-.09,0-.27-.02-.53-.03s-.52-.02-.79-.02-.52,0-.78.02-.42.02-.5.03l.08-.62c.2-.01.34-.07.41-.16Z"/>
      <path class="cls-1" d="M58.75,23.7c.21-.01.37-.04.46-.07.1-.03.17-.09.2-.17.04-.08.06-.21.07-.39l.04-1.74c-.66.47-1.05.7-1.16.7-.59,0-1.06-.2-1.41-.61s-.53-.95-.53-1.65c0-.5.11-.96.33-1.36.22-.4.53-.72.92-.95s.83-.34,1.32-.34c.29,0,.66.03,1.12.1.18-.07.32-.13.44-.17s.2-.08.23-.09l.11.11c-.07.14-.12.75-.16,1.82-.04,1.07-.06,2.43-.06,4.07,0,.2,0,.34.03.44.02.1.05.16.09.19.04.03.11.05.2.05.07,0,.13,0,.17,0,.05,0,.08,0,.09,0l.02.03-.07.61h-1.28c-.21,0-.45,0-.72.02-.27.01-.45.02-.53.03l.06-.61ZM59.09,20.99c.12-.05.22-.11.3-.16.08-.05.13-.09.15-.11v-2.58s-.05-.02-.12-.05c-.07-.03-.16-.05-.27-.08-.11-.03-.23-.04-.37-.04-.33,0-.59.12-.78.37-.18.25-.28.6-.28,1.06,0,.51.09.92.28,1.22.19.31.43.46.74.46.11,0,.22-.03.34-.08Z"/>
      <path class="cls-1" d="M62.12,18.1c-.05-.08-.14-.12-.27-.12-.06,0-.12,0-.16.01s-.08.01-.09.02l.06-.59c.35-.05.72-.11,1.1-.18.38-.07.63-.12.74-.15l.09.16c-.07.17-.14.54-.19,1.12-.05.57-.08,1.17-.08,1.78,0,.28.05.49.16.62.11.14.27.2.48.2.14,0,.27-.03.4-.1.13-.06.29-.16.48-.29v-2.1c0-.19-.03-.32-.09-.39s-.18-.11-.35-.11h-.18s.08-.57.08-.57c.37-.05.75-.11,1.14-.17s.64-.11.76-.13l.09.16c-.07.16-.14.55-.19,1.19-.05.64-.08,1.34-.08,2.11,0,.13.03.23.1.31.07.07.16.11.27.11.07,0,.15-.01.22-.04.07-.03.13-.05.18-.08.05-.03.08-.04.09-.05l.15.2s-.1.14-.2.29c-.11.15-.24.29-.4.44-.16.15-.31.24-.45.28-.62,0-.97-.26-1.04-.79l-.08-.04c-.26.24-.49.43-.71.59-.21.15-.36.23-.43.23-.52,0-.91-.11-1.18-.33-.27-.22-.41-.53-.41-.95l.07-2.28c0-.18-.03-.3-.08-.38Z"/>
      <path class="cls-1" d="M67.37,21.39c.2-.03.34-.1.43-.2s.14-.24.14-.43v-2.2c0-.22-.03-.37-.09-.45s-.17-.12-.34-.12c-.05,0-.1,0-.14.01s-.08.01-.09.02l.06-.58c.38-.05.77-.12,1.16-.19.39-.07.65-.12.77-.15l.09.16c-.07.15-.13.56-.18,1.23-.04.67-.07,1.46-.07,2.36,0,.16.02.28.07.35.05.07.13.1.24.1.06,0,.12,0,.18-.01s.1-.01.12-.01l.03.05-.1.62c-.07,0-.22-.01-.44-.02-.22,0-.45-.01-.68-.01-.21,0-.45.02-.72.05s-.44.05-.53.07l.08-.64ZM67.92,16.02c-.12-.13-.18-.3-.18-.52,0-.24.07-.44.22-.59.15-.15.34-.22.59-.22.22,0,.39.07.51.2.12.13.18.31.18.53,0,.24-.07.43-.22.58-.15.15-.34.22-.58.22-.22,0-.4-.06-.52-.19Z"/>
      <path class="cls-1" d="M71.03,21.74c-.22-.2-.34-.52-.34-.95v-2.28c0-.22-.04-.36-.11-.43-.07-.07-.22-.11-.44-.12l-.1-.07.07-.5c.26-.12.51-.26.77-.42.25-.16.46-.3.63-.42.17-.12.27-.2.31-.23l.29.14s-.02.14-.05.3c-.02.16-.05.35-.07.58l1.2-.03.04.05-.1.68-1.2-.03c-.04.59-.06,1.33-.06,2.22,0,.29.05.5.15.63s.27.19.5.19c.12,0,.25-.02.37-.06.13-.04.21-.07.24-.08l.13.33s-.14.13-.29.26-.32.25-.49.37c-.17.12-.3.18-.39.18-.48,0-.84-.1-1.06-.3Z"/>
      <path class="cls-1" d="M74.26,21.42c-.41-.42-.62-.99-.62-1.72,0-.49.11-.93.32-1.33.21-.39.5-.71.87-.93.37-.23.78-.34,1.22-.34,1.14,0,1.71.58,1.71,1.73,0,.2-.02.39-.07.57l-.12.12h-2.64c0,.5.12.88.35,1.14.23.26.55.39.95.39.35,0,.76-.1,1.21-.31l.07.04.16.5c-.25.19-.54.36-.87.52s-.62.23-.86.23c-.71,0-1.28-.21-1.69-.63ZM76.33,18.88c.08,0,.13-.02.16-.05.02-.03.04-.09.04-.18,0-.5-.21-.76-.64-.76-.27,0-.48.09-.65.28-.17.18-.27.45-.3.8l1.4-.08Z"/>
      <path class="cls-1" d="M78.96,21.42c-.4-.42-.6-.99-.6-1.72,0-.5.11-.95.32-1.35.21-.39.51-.7.88-.92.38-.22.8-.33,1.28-.33.22,0,.43.02.63.05.19.03.35.06.46.09s.18.05.21.07l.04.09s-.03.13-.06.28c-.03.15-.06.34-.1.57-.03.23-.06.47-.07.72l-.65.04v-.34c0-.23-.06-.41-.17-.54-.11-.13-.27-.19-.47-.19-.32,0-.56.12-.73.35s-.25.57-.25,1c0,.56.1.99.3,1.29.2.3.48.45.84.45.17,0,.33-.02.49-.07.16-.04.29-.09.4-.14.11-.05.17-.08.2-.09l.07.03.16.52s-.16.12-.33.24c-.17.12-.37.23-.59.35s-.43.17-.61.17c-.69,0-1.24-.21-1.64-.63Z"/>
      <path class="cls-1" d="M83.53,21.74c-.22-.2-.34-.52-.34-.95v-2.28c0-.22-.04-.36-.11-.43-.07-.07-.22-.11-.44-.12l-.1-.07.07-.5c.26-.12.51-.26.77-.42.25-.16.46-.3.63-.42.17-.12.27-.2.31-.23l.29.14s-.02.14-.05.3c-.02.16-.05.35-.07.58l1.2-.03.04.05-.1.68-1.2-.03c-.04.59-.06,1.33-.06,2.22,0,.29.05.5.15.63s.27.19.5.19c.12,0,.25-.02.37-.06.13-.04.21-.07.24-.08l.13.33s-.14.13-.29.26-.32.25-.49.37c-.17.12-.3.18-.39.18-.48,0-.84-.1-1.06-.3Z"/>
      <path class="cls-1" d="M86.56,18.1c-.05-.08-.14-.12-.27-.12-.06,0-.12,0-.16.01s-.08.01-.09.02l.06-.59c.35-.05.72-.11,1.1-.18.38-.07.63-.12.74-.15l.09.16c-.07.17-.14.54-.19,1.12-.05.57-.08,1.17-.08,1.78,0,.28.05.49.16.62.11.14.27.2.48.2.14,0,.27-.03.4-.1.13-.06.29-.16.48-.29v-2.1c0-.19-.03-.32-.09-.39s-.18-.11-.35-.11h-.18s.08-.57.08-.57c.37-.05.75-.11,1.14-.17s.64-.11.76-.13l.09.16c-.07.16-.14.55-.19,1.19-.05.64-.08,1.34-.08,2.11,0,.13.03.23.1.31.07.07.16.11.27.11.07,0,.15-.01.22-.04.07-.03.13-.05.18-.08.05-.03.08-.04.09-.05l.15.2s-.1.14-.2.29c-.11.15-.24.29-.4.44-.16.15-.31.24-.45.28-.62,0-.97-.26-1.04-.79l-.08-.04c-.26.24-.49.43-.71.59-.21.15-.36.23-.43.23-.52,0-.91-.11-1.18-.33-.27-.22-.41-.53-.41-.95l.07-2.28c0-.18-.03-.3-.08-.38Z"/>
      <path class="cls-1" d="M92.31,21.18c.07-.1.11-.28.11-.54v-2.03c0-.23-.03-.39-.09-.47-.06-.08-.18-.13-.35-.13h-.19s-.05-.06-.05-.06l.06-.51c.36-.06.73-.13,1.11-.2.38-.07.62-.12.73-.14l.09.09c-.01.06-.03.19-.06.39s-.04.39-.05.57l.06.04c.21-.32.44-.57.7-.74.26-.18.5-.27.73-.27.09,0,.17,0,.23,0s.1.01.12.02l.04.08c-.02.12-.05.37-.1.75s-.08.75-.1,1.1l-.65.04c0-.33-.02-.54-.06-.65-.04-.11-.11-.16-.23-.16-.11,0-.22.04-.35.12s-.24.19-.35.34c0,.19-.02.5-.05.93-.02.43-.04.78-.05,1.04,0,.18.03.3.09.37s.16.1.31.1c.1,0,.2,0,.31-.01.1,0,.17-.01.2-.02l.03.06-.11.67c-.09,0-.27-.02-.53-.03s-.52-.02-.79-.02-.52,0-.78.02-.42.02-.5.03l.08-.62c.2-.01.34-.07.41-.16Z"/>
      <path class="cls-1" d="M98.73,21.84c-.17-.13-.28-.33-.31-.59l-.08-.03c-.22.22-.43.41-.63.56-.2.15-.37.22-.49.22-.4,0-.73-.14-1-.42-.27-.28-.4-.63-.4-1.06,0-.21.05-.39.16-.55.11-.15.25-.25.43-.3l1.97-.46v-.24c0-.29-.07-.52-.22-.68-.16-.16-.37-.24-.64-.24-.18,0-.38.05-.6.14-.21.09-.41.21-.6.34l-.09-.04-.17-.61c.34-.19.7-.37,1.07-.53.37-.16.64-.25.8-.25.57,0,.99.13,1.27.38s.42.59.42,1.01c0,.15-.03.46-.09.92-.07.66-.11,1.05-.11,1.18s.03.23.1.31c.07.07.16.11.27.11.08,0,.17-.02.26-.06.09-.04.17-.08.23-.12l.15.21c-.12.22-.27.43-.45.63-.18.2-.36.32-.53.37-.3,0-.54-.07-.71-.2ZM97.95,20.95c.14-.05.26-.13.37-.21l.03-.97-1.09.31c-.16.04-.24.15-.24.34s.05.32.16.44.24.18.41.18c.1,0,.22-.03.36-.08Z"/>
      <path class="cls-1" d="M102.5,24.22c-.12-.11-.23-.22-.33-.36-.1-.13-.15-.23-.15-.3l.07-.12c.44-.03.82-.18,1.16-.42.34-.25.63-.59.86-1.02-.02-.04-.04-.08-.05-.12-.01-.04-.02-.08-.04-.11-.09-.24-.28-.78-.59-1.64-.3-.85-.54-1.47-.7-1.86-.07-.16-.15-.27-.25-.33-.1-.06-.22-.1-.37-.11l-.02-.05.07-.57h.8c.31.01.64,0,1-.02s.54-.03.54-.04l.02.05-.08.58c-.2,0-.33.03-.39.07-.06.04-.1.1-.1.18,0,.1.05.34.16.72s.21.75.33,1.12c.11.37.19.61.22.72h.1c.62-1.57.93-2.43.93-2.56,0-.07-.02-.13-.07-.16-.05-.03-.13-.05-.24-.05h-.33s-.03-.05-.03-.05l.08-.57c.07,0,.2.01.41.02.2,0,.43.01.67.01h.94s-.08.6-.08.6c-.15.03-.26.08-.33.15-.07.06-.13.18-.19.35l-1.3,3.15c-.44,1.05-.84,1.8-1.22,2.25-.38.45-.79.66-1.24.66-.06,0-.15-.05-.28-.16Z"/>
      <path class="cls-1" d="M111.33,21.97c-.34-.03-.63-.05-.87-.05-.22,0-.48.01-.76.04-.28.03-.46.05-.54.06l.06-.68c.29-.05.49-.13.59-.26.1-.12.15-.33.15-.61v-3.89c0-.22-.02-.36-.06-.44-.04-.07-.13-.11-.26-.11-.07,0-.15,0-.21.01-.07,0-.11,0-.13,0l-.05-.09.08-.62c.1,0,.27,0,.53.02s.51.02.76.02c.3,0,.61,0,.94-.02.33-.01.55-.02.67-.03.68,0,1.27.12,1.77.37.5.24.88.6,1.14,1.05.27.46.4,1,.4,1.63,0,.71-.15,1.34-.45,1.9-.3.56-.72.99-1.26,1.3-.54.31-1.15.46-1.83.46-.11-.01-.33-.04-.67-.07ZM111.46,16.24s-.06.1-.07.19c-.09,1.9-.13,3.24-.13,4.01,0,.2.02.36.07.46s.13.18.26.22c.13.04.31.06.55.06.6,0,1.06-.21,1.37-.63s.47-1.04.47-1.86c0-.86-.19-1.5-.57-1.9s-.95-.61-1.73-.61c-.11,0-.18.02-.23.05Z"/>
      <path class="cls-1" d="M116.14,21.39c.2-.03.34-.1.43-.2s.14-.24.14-.43v-2.2c0-.22-.03-.37-.09-.45s-.17-.12-.34-.12c-.05,0-.1,0-.14.01s-.08.01-.09.02l.06-.58c.38-.05.77-.12,1.16-.19.39-.07.65-.12.77-.15l.09.16c-.07.15-.13.56-.18,1.23-.04.67-.07,1.46-.07,2.36,0,.16.02.28.07.35.05.07.13.1.24.1.06,0,.12,0,.18-.01s.1-.01.12-.01l.03.05-.1.62c-.07,0-.22-.01-.44-.02-.22,0-.45-.01-.68-.01-.21,0-.45.02-.72.05s-.44.05-.53.07l.08-.64ZM116.7,16.02c-.12-.13-.18-.3-.18-.52,0-.24.07-.44.22-.59.15-.15.34-.22.59-.22.22,0,.39.07.51.2.12.13.18.31.18.53,0,.24-.07.43-.22.58-.15.15-.34.22-.58.22-.22,0-.4-.06-.52-.19Z"/>
      <path class="cls-1" d="M119.83,21.98c-.2-.04-.36-.08-.47-.13-.12-.04-.19-.07-.21-.09l-.06-.1c.03-.18.05-.4.08-.64.02-.24.04-.48.06-.7l.56-.05c0,.69.31,1.03.91,1.03.2,0,.36-.04.49-.13s.19-.19.19-.32c0-.14-.07-.26-.2-.37s-.41-.27-.82-.46c-.41-.19-.7-.39-.89-.61-.18-.21-.28-.46-.28-.75,0-.31.09-.58.27-.81.18-.23.42-.42.74-.55.32-.13.68-.2,1.09-.2.2,0,.38.01.55.04s.3.06.4.09c.1.03.16.05.19.06l.05.1c-.01.07-.04.24-.09.51-.04.26-.08.53-.11.81l-.57.04v-.18c0-.24-.05-.41-.16-.53s-.3-.17-.54-.17c-.18,0-.33.04-.45.13-.12.09-.18.19-.18.32s.05.25.16.36c.11.11.29.22.54.35.4.19.71.36.92.51.21.15.36.3.45.45.08.15.13.34.13.55,0,.28-.09.53-.28.77s-.44.42-.76.55-.67.2-1.05.2c-.25,0-.47-.02-.67-.06Z"/>
      <path class="cls-1" d="M123.81,21.42c-.41-.42-.62-.99-.62-1.72,0-.49.11-.93.32-1.33.21-.39.5-.71.87-.93.37-.23.78-.34,1.22-.34,1.14,0,1.71.58,1.71,1.73,0,.2-.02.39-.07.57l-.12.12h-2.64c0,.5.12.88.35,1.14.23.26.55.39.95.39.35,0,.76-.1,1.21-.31l.07.04.16.5c-.25.19-.54.36-.87.52s-.62.23-.86.23c-.71,0-1.28-.21-1.69-.63ZM125.88,18.88c.08,0,.13-.02.16-.05.02-.03.04-.09.04-.18,0-.5-.21-.76-.64-.76-.27,0-.48.09-.65.28-.17.18-.27.45-.3.8l1.4-.08Z"/>
      <path class="cls-1" d="M131.26,21.19c.07-.09.11-.22.12-.39l.03-1.77c0-.3-.05-.52-.16-.67-.11-.15-.28-.22-.5-.22-.26,0-.56.13-.9.39-.07,1.22-.1,1.99-.1,2.3,0,.17.02.29.07.36.04.07.12.1.24.1h.28s.02.03.02.03l-.1.63c-.07,0-.22-.01-.42-.02-.21,0-.42-.01-.65-.01s-.45,0-.71.03c-.26.02-.42.03-.5.04l.08-.63c.2-.02.33-.07.41-.16s.12-.22.12-.41v-2.16c0-.24-.04-.4-.11-.48-.07-.08-.2-.13-.39-.13h-.13s-.04-.05-.04-.05l.05-.53c.39-.05.77-.12,1.15-.19.38-.07.62-.12.73-.14l.08.1s-.03.13-.06.28-.04.29-.05.43l.04.04c.21-.18.45-.37.73-.56.28-.19.47-.28.6-.28.48,0,.86.12,1.13.35s.4.55.4.97c0,.1-.03.46-.08,1.07-.07.69-.1,1.14-.1,1.34,0,.18.03.3.08.38.05.08.13.11.24.11.07,0,.13,0,.19,0s.1-.01.12-.01l.02.04-.09.62c-.08,0-.23-.01-.44-.02-.21,0-.43-.01-.66-.01-.16,0-.37.01-.63.04s-.42.04-.51.05l.05-.63c.17-.03.29-.1.36-.18ZM128.96,16.05v-.1s.79-1.03.79-1.03l.16-.04c.11,0,.35.06.71.18.33.11.53.16.6.16.07,0,.15-.04.25-.13.09-.09.18-.17.26-.27.07-.1.12-.16.14-.18h.11s.4.37.4.37v.1s-.79,1.03-.79,1.03l-.17.04c-.12,0-.35-.06-.7-.18-.03-.01-.13-.04-.28-.09-.15-.05-.26-.07-.33-.07-.07,0-.16.04-.26.13-.1.09-.18.18-.26.27-.07.1-.12.16-.14.18h-.1s-.4-.37-.4-.37Z"/>
      <path class="cls-1" d="M134.81,21.75c-.33-.19-.58-.47-.76-.82-.18-.35-.27-.76-.27-1.22,0-.51.1-.96.31-1.36.21-.39.5-.7.87-.92.37-.22.8-.33,1.28-.33.66,0,1.18.21,1.57.63.38.42.58.98.58,1.7,0,.51-.1.96-.31,1.36s-.49.71-.86.93c-.37.22-.8.33-1.28.33-.43,0-.81-.1-1.13-.29ZM136.81,20.93c.15-.23.23-.58.23-1.04,0-.64-.09-1.12-.27-1.45-.18-.33-.43-.49-.77-.49-.29,0-.52.12-.67.35-.15.23-.23.58-.23,1.04,0,.64.09,1.12.27,1.45.18.33.43.49.77.49.29,0,.52-.12.67-.35Z"/>
      <path class="cls-1" d="M.18,31.84c.22-.04.36-.1.43-.17s.1-.22.1-.43v-3.1c0-.16-.01-.26-.05-.32-.04-.05-.11-.08-.22-.08-.05,0-.1,0-.15,0-.05,0-.08,0-.1,0v-.03s.04-.32.04-.32c.06,0,.17,0,.33.01.16,0,.32,0,.49,0,.15,0,.32,0,.52-.01.19,0,.33-.01.41-.02.51,0,.9.11,1.17.34.27.23.41.55.41.97,0,.28-.08.54-.24.78s-.37.45-.63.6c-.26.15-.53.23-.82.23h-.62s-.01.72-.01.72c0,.24,0,.4.02.5.01.1.04.17.08.2.04.03.11.05.22.05.08,0,.16,0,.24,0,.08,0,.13,0,.16-.01v.03s-.05.34-.05.34c-.05,0-.14,0-.27-.01-.13,0-.27,0-.41,0-.2,0-.43,0-.69.02s-.4.03-.41.04l.05-.34ZM2.71,29.64c.15-.19.23-.45.23-.79,0-.38-.11-.65-.34-.83-.22-.17-.57-.26-1.05-.26-.09,0-.14,0-.16.01-.02,0-.03.04-.04.09-.04.62-.07,1.3-.09,2.03l.78.11c.29-.05.52-.17.67-.36Z"/>
      <path class="cls-1" d="M4.43,32.01c-.22-.14-.38-.33-.5-.58-.12-.25-.18-.53-.18-.85,0-.34.07-.66.23-.95.15-.29.35-.51.62-.68.26-.16.55-.25.87-.25.28,0,.52.07.74.21s.39.33.51.58c.12.25.18.53.18.85,0,.34-.07.66-.23.95-.15.29-.35.51-.61.68-.26.16-.55.25-.87.25-.28,0-.53-.07-.74-.21ZM6.04,31.52c.16-.22.24-.53.24-.91,0-.29-.04-.55-.13-.78-.09-.23-.21-.41-.37-.53s-.34-.19-.54-.19c-.28,0-.49.11-.66.34-.16.23-.24.53-.24.92,0,.29.04.55.13.77s.21.4.37.53c.16.13.34.19.55.19.28,0,.49-.11.66-.34Z"/>
      <path class="cls-1" d="M9.96,31.74c.06-.08.1-.18.1-.31l.03-1.46c0-.25-.05-.43-.16-.57-.11-.13-.26-.2-.45-.2-.16,0-.32.04-.48.12-.16.08-.3.17-.43.26-.04,1.02-.07,1.62-.07,1.81,0,.15.02.26.06.32.04.06.11.09.21.09.05,0,.11,0,.15,0,.05,0,.08,0,.1,0v.03s-.05.32-.05.32c-.04,0-.13,0-.26-.01-.13,0-.27,0-.41,0-.13,0-.27,0-.42.02-.15.01-.26.02-.31.03l.04-.3c.14-.02.24-.07.3-.13.06-.06.09-.16.09-.3v-1.8c0-.17-.03-.28-.08-.35s-.15-.1-.28-.1h-.08s-.02-.03-.02-.03l.02-.24c.21-.03.42-.07.63-.12.21-.05.34-.08.4-.09l.04.06s-.02.09-.04.19c-.02.1-.03.2-.04.3v.02c.57-.37.94-.56,1.1-.56.31,0,.56.09.74.26s.27.4.27.69c0,.05-.01.28-.04.68-.04.51-.06.87-.06,1.07,0,.14.02.25.06.31s.11.1.2.1c.05,0,.11,0,.15,0,.05,0,.08,0,.1,0v.03s-.04.32-.04.32c-.04,0-.13,0-.25-.01-.12,0-.26,0-.4,0-.13,0-.27.01-.44.04s-.27.04-.32.05l.03-.3c.15-.04.25-.1.32-.17Z"/>
      <path class="cls-1" d="M12.18,32.01c-.14-.14-.21-.36-.21-.69v-1.81c0-.13-.03-.23-.09-.28s-.17-.08-.33-.09l-.03-.04.04-.22c.14-.07.28-.15.42-.25.14-.1.25-.19.33-.27.09-.08.14-.13.17-.15l.15.06s-.01.08-.02.18c0,.09-.02.22-.04.38l1.08-.02.02.02-.07.39-1.07-.02c-.03.54-.05,1.15-.05,1.84,0,.25.04.43.13.53s.23.15.45.15c.07,0,.15,0,.22-.03.07-.02.14-.04.18-.06s.08-.04.1-.04l.07.19s-.09.07-.19.14c-.1.07-.2.14-.31.2-.11.07-.19.1-.25.1-.33,0-.57-.07-.71-.2Z"/>
      <path class="cls-1" d="M14.24,31.91c.15-.04.25-.1.32-.17.06-.08.1-.18.1-.31v-1.87c0-.27-.09-.4-.27-.4-.03,0-.07,0-.11.01-.04,0-.06.01-.07.02l.03-.27c.21-.03.42-.07.64-.12.22-.05.36-.08.42-.1l.04.09c-.04.1-.08.42-.12.95-.03.53-.05,1.08-.05,1.66,0,.14.02.25.06.31s.11.1.2.1c.05,0,.11,0,.15,0,.05,0,.08,0,.1,0v.03s-.04.32-.04.32c-.04,0-.13,0-.25-.01-.12,0-.26,0-.4,0-.13,0-.27.01-.44.04s-.27.04-.32.05l.03-.3ZM14.59,27.72c-.06-.07-.1-.16-.1-.27,0-.12.04-.22.12-.31.08-.09.19-.13.31-.13.11,0,.2.04.27.11.06.07.1.16.1.27,0,.12-.04.22-.13.31-.08.09-.19.13-.31.13-.11,0-.2-.04-.27-.11Z"/>
      <path class="cls-1" d="M18.65,31.91c.12-.03.21-.07.27-.12s.09-.11.11-.2c.02-.09.03-.23.03-.42v-1.61c0-.12-.01-.2-.04-.26-.02-.05-.07-.09-.14-.11-.07-.02-.18-.03-.33-.03h-1.18c0,.25,0,.62-.01,1.12s-.01.87-.01,1.12c0,.27.12.41.36.41.13,0,.23,0,.31,0,.08,0,.13,0,.15,0v.03s-.04.31-.04.31c-.07,0-.19,0-.38,0-.18,0-.36,0-.54,0s-.34,0-.5.01-.27.01-.32.02l.04-.29c.12-.01.21-.04.27-.08s.1-.11.12-.2c.02-.09.03-.22.03-.39v-1.73c0-.12-.05-.2-.11-.24s-.18-.07-.36-.07l-.03-.04.05-.25.44-.08c0-.43.07-.8.22-1.12.15-.32.36-.56.63-.73s.6-.26.97-.26c.17,0,.32.02.47.06.15.04.32.1.51.2v.07s-.03.1-.08.2c-.05.1-.09.22-.14.35l-.08.02s-.05-.05-.15-.13c-.1-.08-.23-.15-.38-.22s-.32-.1-.49-.1c-.31,0-.54.11-.7.34-.15.22-.24.57-.24,1.03v.34c.89,0,1.46,0,1.7-.01s.45-.03.61-.07l.04.09c-.04.1-.08.42-.12.95-.03.53-.05,1.08-.05,1.66,0,.15.02.25.06.32.04.06.11.1.2.1.05,0,.11,0,.15,0,.05,0,.08,0,.1,0v.03s-.04.32-.04.32c-.04,0-.13,0-.25-.01-.12,0-.26,0-.41,0-.13,0-.27.01-.44.04s-.27.04-.32.05l.03-.3Z"/>
      <path class="cls-1" d="M21.15,31.77c-.28-.29-.42-.69-.42-1.19,0-.35.07-.67.23-.95.15-.29.35-.51.61-.68s.55-.25.87-.25c.14,0,.27,0,.4.03.13.02.23.04.31.06s.13.04.15.05l.02.05s-.02.08-.04.17-.05.21-.07.36c-.02.15-.04.31-.04.48l-.3.02v-.23c0-.18-.06-.33-.17-.44-.11-.11-.26-.17-.44-.17-.3,0-.53.11-.69.32-.16.21-.24.52-.24.91,0,.43.09.77.27,1.01.18.25.42.37.73.37.12,0,.25-.02.37-.06.12-.04.23-.07.31-.11.08-.04.14-.06.16-.08h.04s.08.24.08.24c-.03.02-.11.08-.22.15-.12.08-.25.15-.4.23-.15.07-.28.11-.39.11-.47,0-.84-.15-1.12-.44Z"/>
      <path class="cls-1" d="M24.03,31.91c.15-.04.25-.1.32-.17.06-.08.1-.18.1-.31v-1.87c0-.27-.09-.4-.27-.4-.03,0-.07,0-.11.01-.04,0-.06.01-.07.02l.03-.27c.21-.03.42-.07.64-.12.22-.05.36-.08.42-.1l.04.09c-.04.1-.08.42-.12.95-.03.53-.05,1.08-.05,1.66,0,.14.02.25.06.31s.11.1.2.1c.05,0,.11,0,.15,0,.05,0,.08,0,.1,0v.03s-.04.32-.04.32c-.04,0-.13,0-.25-.01-.12,0-.26,0-.4,0-.13,0-.27.01-.44.04s-.27.04-.32.05l.03-.3ZM24.39,27.72c-.06-.07-.1-.16-.1-.27,0-.12.04-.22.12-.31.08-.09.19-.13.31-.13.11,0,.2.04.27.11.06.07.1.16.1.27,0,.12-.04.22-.13.31-.08.09-.19.13-.31.13-.11,0-.2-.04-.27-.11Z"/>
      <path class="cls-1" d="M27.93,31.62h-.03c-.18.17-.34.31-.48.41-.14.1-.25.15-.33.15-.28,0-.5-.09-.68-.26-.18-.17-.27-.39-.27-.66,0-.14.04-.27.11-.38.07-.11.17-.18.28-.21l1.4-.38v-.32c0-.25-.05-.44-.16-.57-.11-.14-.27-.21-.48-.21-.14,0-.28.03-.44.1-.15.06-.3.15-.45.27l-.04-.02-.09-.32c.23-.13.46-.25.7-.36.23-.11.4-.16.51-.16.32,0,.57.08.75.25.18.17.27.4.27.7,0,.11-.02.33-.05.66-.05.54-.08.88-.08,1.03,0,.11.03.19.08.25.05.06.13.09.22.09.08,0,.16-.02.24-.06.08-.04.15-.08.2-.13l.1.12c-.07.12-.17.24-.28.36s-.24.19-.36.23c-.4,0-.62-.2-.66-.6ZM27.54,31.58c.13-.07.24-.15.34-.25l.04-.75-1,.3c-.14.04-.21.15-.21.31,0,.14.05.26.14.35.1.09.22.14.36.14.09,0,.2-.03.33-.1Z"/>
      <path class="cls-1" d="M32.13,31.79c-.28-.28-.42-.68-.42-1.21v-2.44c0-.16-.02-.26-.05-.32-.04-.05-.11-.08-.22-.08-.05,0-.1,0-.15,0-.05,0-.08,0-.1,0v-.03s.04-.32.04-.32c.06,0,.17,0,.34.01.16,0,.33,0,.5,0,.13,0,.28,0,.45-.03.17-.02.28-.03.32-.04l-.03.33c-.18.02-.3.07-.36.12-.06.06-.1.16-.11.3l-.06,2.17c0,.49.11.86.32,1.12.21.26.52.39.91.39s.71-.11.92-.32c.21-.21.32-.52.32-.92,0-.39-.01-.84-.02-1.35,0-.5-.02-.86-.02-1.06,0-.17-.03-.28-.06-.33-.03-.05-.1-.07-.21-.07-.06,0-.12,0-.18,0-.06,0-.11,0-.13,0v-.03s.04-.32.04-.32c.06,0,.17,0,.33.01.16,0,.33,0,.5,0,.13,0,.27,0,.42-.03.15-.02.25-.03.29-.04l-.03.33c-.15.02-.26.04-.33.07s-.12.07-.14.12c-.02.05-.04.13-.04.23v2.48c0,.52-.16.92-.48,1.2-.32.28-.77.42-1.35.42-.52,0-.91-.14-1.19-.42Z"/>
      <path class="cls-1" d="M38.6,31.74c.06-.08.1-.18.1-.31l.03-1.46c0-.25-.05-.43-.16-.57-.11-.13-.26-.2-.45-.2-.16,0-.32.04-.48.12-.16.08-.3.17-.43.26-.04,1.02-.07,1.62-.07,1.81,0,.15.02.26.06.32.04.06.11.09.21.09.05,0,.11,0,.15,0,.05,0,.08,0,.1,0v.03s-.05.32-.05.32c-.04,0-.13,0-.26-.01-.13,0-.27,0-.41,0-.13,0-.27,0-.42.02-.15.01-.26.02-.31.03l.04-.3c.14-.02.24-.07.3-.13.06-.06.09-.16.09-.3v-1.8c0-.17-.03-.28-.08-.35s-.15-.1-.28-.1h-.08s-.02-.03-.02-.03l.02-.24c.21-.03.42-.07.63-.12.21-.05.34-.08.4-.09l.04.06s-.02.09-.04.19c-.02.1-.03.2-.04.3v.02c.57-.37.94-.56,1.1-.56.31,0,.56.09.74.26s.27.4.27.69c0,.05-.01.28-.04.68-.04.51-.06.87-.06,1.07,0,.14.02.25.06.31s.11.1.2.1c.05,0,.11,0,.15,0,.05,0,.08,0,.1,0v.03s-.04.32-.04.32c-.04,0-.13,0-.25-.01-.12,0-.26,0-.4,0-.13,0-.27.01-.44.04s-.27.04-.32.05l.03-.3c.15-.04.25-.1.32-.17Z"/>
      <path class="cls-1" d="M40.36,31.91c.15-.04.25-.1.32-.17.06-.08.1-.18.1-.31v-1.87c0-.27-.09-.4-.27-.4-.03,0-.07,0-.11.01-.04,0-.06.01-.07.02l.03-.27c.21-.03.42-.07.64-.12.22-.05.36-.08.42-.1l.04.09c-.04.1-.08.42-.12.95-.03.53-.05,1.08-.05,1.66,0,.14.02.25.06.31s.11.1.2.1c.05,0,.11,0,.15,0,.05,0,.08,0,.1,0v.03s-.04.32-.04.32c-.04,0-.13,0-.25-.01-.12,0-.26,0-.4,0-.13,0-.27.01-.44.04s-.27.04-.32.05l.03-.3ZM40.71,27.72c-.06-.07-.1-.16-.1-.27,0-.12.04-.22.12-.31.08-.09.19-.13.31-.13.11,0,.2.04.27.11.06.07.1.16.1.27,0,.12-.04.22-.13.31-.08.09-.19.13-.31.13-.11,0-.2-.04-.27-.11Z"/>
      <path class="cls-1" d="M43.07,30.86c-.22-.69-.37-1.17-.46-1.43-.08-.24-.25-.36-.5-.37v-.03s.03-.24.03-.24h.61c.19,0,.37,0,.55-.01.18-.01.29-.02.34-.03v.04s-.03.23-.03.23c-.17,0-.28.02-.34.05-.06.03-.09.07-.09.14,0,.09.09.44.27,1.05s.3,1.03.36,1.24h.03s.41-.99.41-.99c.13-.32.24-.6.33-.83s.13-.38.13-.43c0-.06-.02-.11-.07-.14-.05-.03-.13-.04-.25-.04h-.28s-.03-.04-.03-.04l.04-.23h.79s.6,0,.6,0l-.05.27c-.1.01-.18.06-.24.13-.06.07-.14.21-.23.43l-1.05,2.51-.41.13c-.07-.24-.22-.7-.44-1.39Z"/>
      <path class="cls-1" d="M46.42,32.01c-.24-.14-.42-.33-.55-.57-.13-.25-.19-.53-.19-.85s.07-.64.23-.93c.15-.29.35-.52.6-.69s.52-.26.8-.26c.36,0,.63.09.82.27.19.18.28.45.28.8,0,.14-.01.26-.04.36l-.1.09h-2.03c0,.48.09.84.28,1.1.19.26.47.39.81.39.28,0,.57-.08.9-.23h.04s.08.23.08.23c-.18.13-.37.24-.59.35-.21.1-.39.15-.54.15-.3,0-.57-.07-.81-.2ZM47.6,29.88c.07,0,.12-.03.15-.05.02-.02.04-.07.04-.15,0-.2-.05-.35-.16-.45-.11-.1-.26-.15-.45-.15-.23,0-.43.08-.59.24s-.27.37-.31.63l1.33-.07Z"/>
      <path class="cls-1" d="M49.54,31.72c.05-.08.07-.24.07-.47v-1.62c0-.16-.02-.28-.07-.35-.04-.07-.12-.1-.21-.1-.04,0-.07,0-.1,0-.03,0-.05,0-.06.01l-.04-.05.02-.23c.19-.03.38-.08.59-.13s.34-.08.4-.1l.05.04s-.02.15-.04.31c-.02.16-.03.31-.02.45l.03.02c.15-.23.32-.42.52-.57s.37-.22.52-.22c.07,0,.12,0,.16.01.04,0,.06.01.07.02l.02.03c0,.07-.03.22-.06.44-.03.22-.05.43-.06.62l-.29.02c0-.2-.01-.34-.04-.4s-.08-.1-.16-.1c-.11,0-.22.05-.35.14-.12.09-.24.21-.34.37,0,.14-.01.38-.03.71-.01.33-.02.59-.03.8,0,.17.02.28.07.34.05.06.14.09.28.09.06,0,.13,0,.19,0,.06,0,.11,0,.13,0v.03s-.06.32-.06.32c-.05,0-.15,0-.29,0-.15,0-.3,0-.46,0-.18,0-.35,0-.49.01s-.24.01-.28.02l.04-.29c.15-.01.25-.06.29-.14Z"/>
      <path class="cls-1" d="M52.55,32.18c-.13-.02-.23-.05-.31-.07-.07-.02-.12-.04-.14-.05l-.02-.05c.01-.07.03-.23.05-.46.02-.23.03-.41.04-.53l.26-.04c0,.32.05.55.16.69.11.13.29.2.55.2.19,0,.34-.04.47-.13.13-.08.19-.19.19-.31s-.06-.23-.17-.34c-.12-.1-.34-.24-.68-.42-.28-.14-.48-.29-.61-.43-.13-.15-.19-.31-.19-.49,0-.2.06-.37.18-.53.12-.16.28-.28.49-.38s.44-.14.69-.14c.12,0,.23,0,.34.03.11.02.2.04.27.06.07.02.11.03.13.04v.04s-.02.16-.05.34c-.03.17-.06.36-.07.56l-.27.02s0-.04,0-.09,0-.09,0-.13c0-.18-.05-.31-.14-.39-.1-.08-.25-.12-.46-.12-.17,0-.31.04-.42.12s-.17.17-.17.29.05.23.15.33c.1.1.26.21.49.33.4.21.67.39.81.53.14.14.22.31.22.5s-.06.36-.18.52-.29.29-.5.39-.43.14-.67.14c-.16,0-.3-.01-.43-.03Z"/>
      <path class="cls-1" d="M55.13,31.91c.15-.04.25-.1.32-.17.06-.08.1-.18.1-.31v-1.87c0-.27-.09-.4-.27-.4-.03,0-.07,0-.11.01-.04,0-.06.01-.07.02l.03-.27c.21-.03.42-.07.64-.12.22-.05.36-.08.42-.1l.04.09c-.04.1-.08.42-.12.95-.03.53-.05,1.08-.05,1.66,0,.14.02.25.06.31s.11.1.2.1c.05,0,.11,0,.15,0,.05,0,.08,0,.1,0v.03s-.04.32-.04.32c-.04,0-.13,0-.25-.01-.12,0-.26,0-.4,0-.13,0-.27.01-.44.04s-.27.04-.32.05l.03-.3ZM55.48,27.72c-.06-.07-.1-.16-.1-.27,0-.12.04-.22.12-.31.08-.09.19-.13.31-.13.11,0,.2.04.27.11.06.07.1.16.1.27,0,.12-.04.22-.13.31-.08.09-.19.13-.31.13-.11,0-.2-.04-.27-.11Z"/>
      <path class="cls-1" d="M59.6,31.69l-.05-.02c-.51.35-.82.52-.92.52-.28,0-.53-.07-.74-.2-.22-.13-.38-.31-.5-.55-.12-.24-.18-.51-.18-.81,0-.35.08-.67.25-.97.16-.29.39-.53.67-.7.28-.17.59-.26.92-.26.16,0,.33,0,.51.03v-1.22c0-.27-.09-.4-.27-.4-.03,0-.07,0-.11.01-.04,0-.06.01-.07.02l.03-.27c.21-.03.43-.07.66-.12.23-.05.37-.08.44-.1l.04.1c-.05.08-.1.6-.14,1.56s-.06,1.97-.06,3.04c0,.11.03.19.08.25.05.06.13.09.22.09.07,0,.14-.01.2-.04s.12-.06.16-.08c.04-.03.07-.05.08-.06l.1.12s-.05.08-.11.16c-.06.08-.14.17-.23.25-.1.09-.2.15-.3.18-.38,0-.6-.17-.66-.52ZM59.08,31.62c.12-.06.22-.12.31-.18.08-.06.14-.1.16-.12v-2.02s-.05-.03-.11-.06c-.06-.03-.14-.05-.25-.08s-.22-.04-.36-.04c-.33,0-.59.11-.78.34-.19.22-.28.53-.28.92,0,.25.04.47.13.67.09.2.2.36.35.48.15.12.31.18.49.18.1,0,.22-.03.34-.09Z"/>
      <path class="cls-1" d="M63.07,31.62h-.03c-.18.17-.34.31-.48.41-.14.1-.25.15-.33.15-.28,0-.5-.09-.68-.26-.18-.17-.27-.39-.27-.66,0-.14.04-.27.11-.38.07-.11.17-.18.28-.21l1.4-.38v-.32c0-.25-.05-.44-.16-.57-.11-.14-.27-.21-.48-.21-.14,0-.28.03-.44.1-.15.06-.3.15-.45.27l-.04-.02-.09-.32c.23-.13.46-.25.7-.36.23-.11.4-.16.51-.16.32,0,.57.08.75.25.18.17.27.4.27.7,0,.11-.02.33-.05.66-.05.54-.08.88-.08,1.03,0,.11.03.19.08.25.05.06.13.09.22.09.08,0,.16-.02.24-.06.08-.04.15-.08.2-.13l.1.12c-.07.12-.17.24-.28.36s-.24.19-.36.23c-.4,0-.62-.2-.66-.6ZM62.68,31.58c.13-.07.24-.15.34-.25l.04-.75-1,.3c-.14.04-.21.15-.21.31,0,.14.05.26.14.35.1.09.22.14.36.14.09,0,.2-.03.33-.1Z"/>
      <path class="cls-1" d="M67.17,31.69l-.05-.02c-.51.35-.82.52-.92.52-.28,0-.53-.07-.74-.2-.22-.13-.38-.31-.5-.55-.12-.24-.18-.51-.18-.81,0-.35.08-.67.25-.97.16-.29.39-.53.67-.7.28-.17.59-.26.92-.26.16,0,.33,0,.51.03v-1.22c0-.27-.09-.4-.27-.4-.03,0-.07,0-.11.01-.04,0-.06.01-.07.02l.03-.27c.21-.03.43-.07.66-.12.23-.05.37-.08.44-.1l.04.1c-.05.08-.1.6-.14,1.56s-.06,1.97-.06,3.04c0,.11.03.19.08.25.05.06.13.09.22.09.07,0,.14-.01.2-.04s.12-.06.16-.08c.04-.03.07-.05.08-.06l.1.12s-.05.08-.11.16c-.06.08-.14.17-.23.25-.1.09-.2.15-.3.18-.38,0-.6-.17-.66-.52ZM66.65,31.62c.12-.06.22-.12.31-.18.08-.06.14-.1.16-.12v-2.02s-.05-.03-.11-.06c-.06-.03-.14-.05-.25-.08s-.22-.04-.36-.04c-.33,0-.59.11-.78.34-.19.22-.28.53-.28.92,0,.25.04.47.13.67.09.2.2.36.35.48.15.12.31.18.49.18.1,0,.22-.03.34-.09Z"/>
      <path class="cls-1" d="M71.44,31.93c-.33-.19-.59-.45-.77-.79-.18-.34-.27-.74-.27-1.2,0-.49.11-.93.33-1.33.22-.4.53-.71.92-.93s.83-.34,1.32-.34c.18,0,.37.01.56.04.19.03.35.05.48.08s.21.05.25.06l.03.04s-.03.1-.05.21c-.02.11-.05.26-.07.44-.03.18-.05.37-.06.57l-.35.03s0-.07.01-.14c0-.07,0-.14,0-.22,0-.46-.36-.69-1.08-.69-.32,0-.61.08-.85.24-.25.16-.43.38-.57.67-.13.29-.2.63-.2,1.01,0,.43.07.8.21,1.13.14.32.34.58.59.76.26.18.55.27.88.27s.6-.09.81-.28c.2-.19.35-.48.45-.88l.35-.03c-.01.07-.05.24-.1.49-.05.25-.08.49-.1.71l-.04.07s-.07.03-.22.08c-.15.05-.34.1-.56.14-.22.04-.47.07-.73.07-.44,0-.83-.09-1.16-.28Z"/>
      <path class="cls-1" d="M76.89,31.62h-.03c-.18.17-.34.31-.48.41-.14.1-.25.15-.33.15-.28,0-.5-.09-.68-.26-.18-.17-.27-.39-.27-.66,0-.14.04-.27.11-.38.07-.11.17-.18.28-.21l1.4-.38v-.32c0-.25-.05-.44-.16-.57-.11-.14-.27-.21-.48-.21-.14,0-.28.03-.44.1-.15.06-.3.15-.45.27l-.04-.02-.09-.32c.23-.13.46-.25.7-.36.23-.11.4-.16.51-.16.32,0,.57.08.75.25.18.17.27.4.27.7,0,.11-.02.33-.05.66-.05.54-.08.88-.08,1.03,0,.11.03.19.08.25.05.06.13.09.22.09.08,0,.16-.02.24-.06.08-.04.15-.08.2-.13l.1.12c-.07.12-.17.24-.28.36s-.24.19-.36.23c-.4,0-.62-.2-.66-.6ZM76.5,31.58c.13-.07.24-.15.34-.25l.04-.75-1,.3c-.14.04-.21.15-.21.31,0,.14.05.26.14.35.1.09.22.14.36.14.09,0,.2-.03.33-.1Z"/>
      <path class="cls-1" d="M79.14,32.01c-.14-.14-.21-.36-.21-.69v-1.81c0-.13-.03-.23-.09-.28s-.17-.08-.33-.09l-.03-.04.04-.22c.14-.07.28-.15.42-.25.14-.1.25-.19.33-.27.09-.08.14-.13.17-.15l.15.06s-.01.08-.02.18c0,.09-.02.22-.04.38l1.08-.02.02.02-.07.39-1.07-.02c-.03.54-.05,1.15-.05,1.84,0,.25.04.43.13.53s.23.15.45.15c.07,0,.15,0,.22-.03.07-.02.14-.04.18-.06s.08-.04.1-.04l.07.19s-.09.07-.19.14c-.1.07-.2.14-.31.2-.11.07-.19.1-.25.1-.33,0-.57-.07-.71-.2Z"/>
      <path class="cls-1" d="M81.8,32.01c-.22-.14-.38-.33-.5-.58-.12-.25-.18-.53-.18-.85,0-.34.07-.66.23-.95.15-.29.35-.51.62-.68.26-.16.55-.25.87-.25.28,0,.52.07.74.21s.39.33.51.58c.12.25.18.53.18.85,0,.34-.07.66-.23.95-.15.29-.35.51-.61.68-.26.16-.55.25-.87.25-.28,0-.53-.07-.74-.21ZM83.4,31.52c.16-.22.24-.53.24-.91,0-.29-.04-.55-.13-.78-.09-.23-.21-.41-.37-.53s-.34-.19-.54-.19c-.28,0-.49.11-.66.34-.16.23-.24.53-.24.92,0,.29.04.55.13.77s.21.4.37.53c.16.13.34.19.55.19.28,0,.49-.11.66-.34ZM82.34,28.27l-.15-.14c.22-.24.44-.49.67-.76.23-.27.37-.44.43-.52h.07s.28.32.28.32v.08c-.08.05-.24.18-.49.38-.25.2-.5.42-.76.65h-.07Z"/>
      <path class="cls-1" d="M84.83,31.91c.14-.04.23-.09.29-.15.06-.06.09-.13.1-.21.01-.08.02-.22.02-.42v-3.62c0-.15-.02-.26-.05-.31-.03-.05-.11-.08-.21-.08-.02,0-.08,0-.17.01h-.02s.03-.27.03-.27c.41-.06.78-.13,1.09-.21l.04.1c-.05.08-.1.61-.14,1.58-.04.97-.06,1.99-.06,3.07,0,.15.02.25.06.32.04.06.11.1.2.1h.26s.01.01.01.01l-.06.32c-.32-.01-.54-.02-.66-.02-.17,0-.42.03-.76.09l.03-.3Z"/>
      <path class="cls-1" d="M86.85,31.91c.15-.04.25-.1.32-.17.06-.08.1-.18.1-.31v-1.87c0-.27-.09-.4-.27-.4-.03,0-.07,0-.11.01-.04,0-.06.01-.07.02l.03-.27c.21-.03.42-.07.64-.12.22-.05.36-.08.42-.1l.04.09c-.04.1-.08.42-.12.95-.03.53-.05,1.08-.05,1.66,0,.14.02.25.06.31s.11.1.2.1c.05,0,.11,0,.15,0,.05,0,.08,0,.1,0v.03s-.04.32-.04.32c-.04,0-.13,0-.25-.01-.12,0-.26,0-.4,0-.13,0-.27.01-.44.04s-.27.04-.32.05l.03-.3ZM87.2,27.72c-.06-.07-.1-.16-.1-.27,0-.12.04-.22.12-.31.08-.09.19-.13.31-.13.11,0,.2.04.27.11.06.07.1.16.1.27,0,.12-.04.22-.13.31-.08.09-.19.13-.31.13-.11,0-.2-.04-.27-.11Z"/>
      <path class="cls-1" d="M89.34,31.77c-.28-.29-.42-.69-.42-1.19,0-.35.07-.67.23-.95.15-.29.35-.51.61-.68s.55-.25.87-.25c.14,0,.27,0,.4.03.13.02.23.04.31.06s.13.04.15.05l.02.05s-.02.08-.04.17-.05.21-.07.36c-.02.15-.04.31-.04.48l-.3.02v-.23c0-.18-.06-.33-.17-.44-.11-.11-.26-.17-.44-.17-.3,0-.53.11-.69.32-.16.21-.24.52-.24.91,0,.43.09.77.27,1.01.18.25.42.37.73.37.12,0,.25-.02.37-.06.12-.04.23-.07.31-.11.08-.04.14-.06.16-.08h.04s.08.24.08.24c-.03.02-.11.08-.22.15-.12.08-.25.15-.4.23-.15.07-.28.11-.39.11-.47,0-.84-.15-1.12-.44Z"/>
      <path class="cls-1" d="M93.88,31.62h-.03c-.18.17-.34.31-.48.41-.14.1-.25.15-.33.15-.28,0-.5-.09-.68-.26-.18-.17-.27-.39-.27-.66,0-.14.04-.27.11-.38.07-.11.17-.18.28-.21l1.4-.38v-.32c0-.25-.05-.44-.16-.57-.11-.14-.27-.21-.48-.21-.14,0-.28.03-.44.1-.15.06-.3.15-.45.27l-.04-.02-.09-.32c.23-.13.46-.25.7-.36.23-.11.4-.16.51-.16.32,0,.57.08.75.25.18.17.27.4.27.7,0,.11-.02.33-.05.66-.05.54-.08.88-.08,1.03,0,.11.03.19.08.25.05.06.13.09.22.09.08,0,.16-.02.24-.06.08-.04.15-.08.2-.13l.1.12c-.07.12-.17.24-.28.36s-.24.19-.36.23c-.4,0-.62-.2-.66-.6ZM93.5,31.58c.13-.07.24-.15.34-.25l.04-.75-1,.3c-.14.04-.21.15-.21.31,0,.14.05.26.14.35.1.09.22.14.36.14.09,0,.2-.03.33-.1Z"/>
      <path class="cls-1" d="M99.53,31.69l-.05-.02c-.51.35-.82.52-.92.52-.28,0-.53-.07-.74-.2-.22-.13-.38-.31-.5-.55-.12-.24-.18-.51-.18-.81,0-.35.08-.67.25-.97.16-.29.39-.53.67-.7.28-.17.59-.26.92-.26.16,0,.33,0,.51.03v-1.22c0-.27-.09-.4-.27-.4-.03,0-.07,0-.11.01-.04,0-.06.01-.07.02l.03-.27c.21-.03.43-.07.66-.12.23-.05.37-.08.44-.1l.04.1c-.05.08-.1.6-.14,1.56s-.06,1.97-.06,3.04c0,.11.03.19.08.25.05.06.13.09.22.09.07,0,.14-.01.2-.04s.12-.06.16-.08c.04-.03.07-.05.08-.06l.1.12s-.05.08-.11.16c-.06.08-.14.17-.23.25-.1.09-.2.15-.3.18-.38,0-.6-.17-.66-.52ZM99.01,31.62c.12-.06.22-.12.31-.18.08-.06.14-.1.16-.12v-2.02s-.05-.03-.11-.06c-.06-.03-.14-.05-.25-.08s-.22-.04-.36-.04c-.33,0-.59.11-.78.34-.19.22-.28.53-.28.92,0,.25.04.47.13.67.09.2.2.36.35.48.15.12.31.18.49.18.1,0,.22-.03.34-.09Z"/>
      <path class="cls-1" d="M101.92,32.01c-.24-.14-.42-.33-.55-.57-.13-.25-.19-.53-.19-.85s.07-.64.23-.93c.15-.29.35-.52.6-.69s.52-.26.8-.26c.36,0,.63.09.82.27.19.18.28.45.28.8,0,.14-.01.26-.04.36l-.1.09h-2.03c0,.48.09.84.28,1.1.19.26.47.39.81.39.28,0,.57-.08.9-.23h.04s.08.23.08.23c-.18.13-.37.24-.59.35-.21.1-.39.15-.54.15-.3,0-.57-.07-.81-.2ZM103.1,29.88c.07,0,.12-.03.15-.05.02-.02.04-.07.04-.15,0-.2-.05-.35-.16-.45-.11-.1-.26-.15-.45-.15-.23,0-.43.08-.59.24s-.27.37-.31.63l1.33-.07Z"/>
      <path class="cls-1" d="M107.26,30.63c-.26-.84-.52-1.65-.78-2.45-.04-.14-.12-.25-.23-.31-.11-.07-.26-.1-.45-.11v-.03s.04-.32.04-.32c.06,0,.18,0,.36.01.17,0,.34.01.5.01s.37-.01.62-.03.41-.04.49-.05l.02.05-.03.29c-.27.02-.44.05-.53.09-.09.04-.13.11-.13.22,0,.1.13.61.39,1.53s.44,1.55.54,1.88h.07c.82-2.1,1.22-3.23,1.22-3.39,0-.1-.04-.18-.12-.22-.08-.05-.21-.07-.39-.07h-.38s-.01-.03-.01-.03l.04-.32c.06,0,.21.01.42.03.22.01.43.02.63.02.18,0,.35,0,.51,0,.15,0,.26,0,.31-.01l-.06.35c-.15,0-.26.03-.32.07-.06.04-.12.14-.17.28l-1.58,3.98-.47.16c-.07-.25-.24-.79-.5-1.62Z"/>
      <path class="cls-1" d="M111.93,31.62h-.03c-.18.17-.34.31-.48.41-.14.1-.25.15-.33.15-.28,0-.5-.09-.68-.26-.18-.17-.27-.39-.27-.66,0-.14.04-.27.11-.38.07-.11.17-.18.28-.21l1.4-.38v-.32c0-.25-.05-.44-.16-.57-.11-.14-.27-.21-.48-.21-.14,0-.28.03-.44.1-.15.06-.3.15-.45.27l-.04-.02-.09-.32c.23-.13.46-.25.7-.36.23-.11.4-.16.51-.16.32,0,.57.08.75.25.18.17.27.4.27.7,0,.11-.02.33-.05.66-.05.54-.08.88-.08,1.03,0,.11.03.19.08.25.05.06.13.09.22.09.08,0,.16-.02.24-.06.08-.04.15-.08.2-.13l.1.12c-.07.12-.17.24-.28.36s-.24.19-.36.23c-.4,0-.62-.2-.66-.6ZM111.55,31.58c.13-.07.24-.15.34-.25l.04-.75-1,.3c-.14.04-.21.15-.21.31,0,.14.05.26.14.35.1.09.22.14.36.14.09,0,.2-.03.33-.1Z"/>
      <path class="cls-1" d="M113.6,31.91c.14-.04.23-.09.29-.15.06-.06.09-.13.1-.21.01-.08.02-.22.02-.42v-3.62c0-.15-.02-.26-.05-.31-.03-.05-.11-.08-.21-.08-.02,0-.08,0-.17.01h-.02s.03-.27.03-.27c.41-.06.78-.13,1.09-.21l.04.1c-.05.08-.1.61-.14,1.58-.04.97-.06,1.99-.06,3.07,0,.15.02.25.06.32.04.06.11.1.2.1h.26s.01.01.01.01l-.06.32c-.32-.01-.54-.02-.66-.02-.17,0-.42.03-.76.09l.03-.3Z"/>
      <path class="cls-1" d="M115.63,33.58c.11-.01.19-.04.24-.07.05-.03.09-.08.11-.15.02-.07.03-.17.03-.32,0-.21,0-.38,0-.53v-.69s0-2.2,0-2.2c0-.17-.03-.28-.08-.35-.05-.07-.15-.1-.28-.1h-.08s-.02-.03-.02-.03l.02-.24c.21-.03.42-.07.63-.12s.34-.08.4-.09l.04.06s-.02.08-.03.16c-.02.08-.03.16-.04.24l.03.05c.46-.32.75-.48.85-.48.28,0,.53.07.74.2.22.13.38.31.5.55.12.24.18.51.18.81,0,.35-.08.67-.25.97-.17.29-.39.53-.67.7-.28.17-.58.26-.91.26-.11,0-.22,0-.32-.01-.11,0-.18-.01-.22-.02v.76c0,.23.03.38.08.46.05.08.14.12.28.12h.25s.01.01.01.01l-.06.28h-.7c-.18,0-.34,0-.49.02-.15.01-.25.02-.29.03l.04-.29ZM118.03,31.47c.19-.22.28-.53.28-.92,0-.25-.04-.47-.13-.67-.09-.2-.2-.36-.35-.48s-.31-.18-.49-.18c-.1,0-.22.03-.36.1s-.28.15-.4.26c-.04.64-.06,1.34-.06,2.08.1.04.21.07.35.1s.26.04.39.04c.33,0,.59-.11.78-.34Z"/>
      <path class="cls-1" d="M121.32,31.62h-.03c-.18.17-.34.31-.48.41-.14.1-.25.15-.33.15-.28,0-.5-.09-.68-.26-.18-.17-.27-.39-.27-.66,0-.14.04-.27.11-.38.07-.11.17-.18.28-.21l1.4-.38v-.32c0-.25-.05-.44-.16-.57-.11-.14-.27-.21-.48-.21-.14,0-.28.03-.44.1-.15.06-.3.15-.45.27l-.04-.02-.09-.32c.23-.13.46-.25.7-.36.23-.11.4-.16.51-.16.32,0,.57.08.75.25.18.17.27.4.27.7,0,.11-.02.33-.05.66-.05.54-.08.88-.08,1.03,0,.11.03.19.08.25.05.06.13.09.22.09.08,0,.16-.02.24-.06.08-.04.15-.08.2-.13l.1.12c-.07.12-.17.24-.28.36s-.24.19-.36.23c-.4,0-.62-.2-.66-.6ZM120.94,31.58c.13-.07.24-.15.34-.25l.04-.75-1,.3c-.14.04-.21.15-.21.31,0,.14.05.26.14.35.1.09.22.14.36.14.09,0,.2-.03.33-.1Z"/>
      <path class="cls-1" d="M123.49,31.72c.05-.08.07-.24.07-.47v-1.62c0-.16-.02-.28-.07-.35-.04-.07-.12-.1-.21-.1-.04,0-.07,0-.1,0-.03,0-.05,0-.06.01l-.04-.05.02-.23c.19-.03.38-.08.59-.13s.34-.08.4-.1l.05.04s-.02.15-.04.31c-.02.16-.03.31-.02.45l.03.02c.15-.23.32-.42.52-.57s.37-.22.52-.22c.07,0,.12,0,.16.01.04,0,.06.01.07.02l.02.03c0,.07-.03.22-.06.44-.03.22-.05.43-.06.62l-.29.02c0-.2-.01-.34-.04-.4s-.08-.1-.16-.1c-.11,0-.22.05-.35.14-.12.09-.24.21-.34.37,0,.14-.01.38-.03.71-.01.33-.02.59-.03.8,0,.17.02.28.07.34.05.06.14.09.28.09.06,0,.13,0,.19,0,.06,0,.11,0,.13,0v.03s-.06.32-.06.32c-.05,0-.15,0-.29,0-.15,0-.3,0-.46,0-.18,0-.35,0-.49.01s-.24.01-.28.02l.04-.29c.15-.01.25-.06.29-.14Z"/>
      <path class="cls-1" d="M127.68,31.62h-.03c-.18.17-.34.31-.48.41-.14.1-.25.15-.33.15-.28,0-.5-.09-.68-.26-.18-.17-.27-.39-.27-.66,0-.14.04-.27.11-.38.07-.11.17-.18.28-.21l1.4-.38v-.32c0-.25-.05-.44-.16-.57-.11-.14-.27-.21-.48-.21-.14,0-.28.03-.44.1-.15.06-.3.15-.45.27l-.04-.02-.09-.32c.23-.13.46-.25.7-.36.23-.11.4-.16.51-.16.32,0,.57.08.75.25.18.17.27.4.27.7,0,.11-.02.33-.05.66-.05.54-.08.88-.08,1.03,0,.11.03.19.08.25.05.06.13.09.22.09.08,0,.16-.02.24-.06.08-.04.15-.08.2-.13l.1.12c-.07.12-.17.24-.28.36s-.24.19-.36.23c-.4,0-.62-.2-.66-.6ZM127.29,31.58c.13-.07.24-.15.34-.25l.04-.75-1,.3c-.14.04-.21.15-.21.31,0,.14.05.26.14.35.1.09.22.14.36.14.09,0,.2-.03.33-.1Z"/>
      <path class="cls-1" d="M129.55,28.27l-.15-.14c.22-.24.44-.49.67-.76.23-.27.37-.44.44-.52h.07s.28.32.28.32v.08c-.08.05-.24.18-.49.38-.25.2-.5.42-.76.65h-.07ZM129.47,31.91c.15-.04.25-.1.32-.17.06-.08.1-.18.1-.31v-1.87c0-.27-.09-.4-.27-.4-.03,0-.07,0-.11.01-.04,0-.06.01-.07.02l.03-.27c.21-.03.42-.07.64-.12.22-.05.36-.08.42-.1l.04.09c-.04.1-.08.42-.12.95-.03.53-.05,1.08-.05,1.66,0,.14.02.25.06.31s.11.1.2.1c.05,0,.11,0,.15,0,.05,0,.08,0,.1,0v.03s-.04.32-.04.32c-.04,0-.13,0-.25-.01-.12,0-.26,0-.4,0-.13,0-.27.01-.44.04s-.27.04-.32.05l.03-.3Z"/>
      <path class="cls-1" d="M132.12,32.18c-.13-.02-.23-.05-.31-.07-.07-.02-.12-.04-.14-.05l-.02-.05c.01-.07.03-.23.05-.46.02-.23.03-.41.04-.53l.26-.04c0,.32.05.55.16.69.11.13.29.2.55.2.19,0,.34-.04.47-.13.13-.08.19-.19.19-.31s-.06-.23-.17-.34c-.12-.1-.34-.24-.68-.42-.28-.14-.48-.29-.61-.43-.13-.15-.19-.31-.19-.49,0-.2.06-.37.18-.53.12-.16.28-.28.49-.38s.44-.14.69-.14c.12,0,.23,0,.34.03.11.02.2.04.27.06.07.02.11.03.13.04v.04s-.02.16-.05.34c-.03.17-.06.36-.07.56l-.27.02s0-.04,0-.09,0-.09,0-.13c0-.18-.05-.31-.14-.39-.1-.08-.25-.12-.46-.12-.17,0-.31.04-.42.12s-.17.17-.17.29.05.23.15.33c.1.1.26.21.49.33.4.21.67.39.81.53.14.14.22.31.22.5s-.06.36-.18.52-.29.29-.5.39-.43.14-.67.14c-.16,0-.3-.01-.43-.03Z"/>
      <path class="cls-1" d="M135.29,32.01c-.22-.14-.38-.33-.5-.58-.12-.25-.18-.53-.18-.85,0-.34.07-.66.23-.95.15-.29.35-.51.62-.68.26-.16.55-.25.87-.25.28,0,.52.07.74.21s.39.33.51.58c.12.25.18.53.18.85,0,.34-.07.66-.23.95-.15.29-.35.51-.61.68-.26.16-.55.25-.87.25-.28,0-.53-.07-.74-.21ZM136.89,31.52c.16-.22.24-.53.24-.91,0-.29-.04-.55-.13-.78-.09-.23-.21-.41-.37-.53s-.34-.19-.54-.19c-.28,0-.49.11-.66.34-.16.23-.24.53-.24.92,0,.29.04.55.13.77s.21.4.37.53c.16.13.34.19.55.19.28,0,.49-.11.66-.34Z"/>
    </g>
  </g>
</svg>